<svg width="53" height="50" viewBox="0 0 53 50" fill="none" xmlns="http://www.w3.org/2000/svg">
<path d="M6.66904 29.897C8.02033 29.897 9.37289 29.897 10.7242 29.897C12.1806 29.897 13.3729 31.0906 13.3729 32.547C13.3729 37.4816 13.3729 42.415 13.3729 47.3496C13.3729 48.8099 12.1844 49.9996 10.7242 49.9996C9.37289 49.9996 8.02033 49.9996 6.66904 49.9996C5.2075 49.9996 4.01904 48.8111 4.01904 47.3496C4.01904 42.415 4.01904 37.4816 4.01904 32.547C4.01904 31.0932 5.2152 29.897 6.66904 29.897ZM10.7242 32.4611C9.37289 32.4611 8.02033 32.4611 6.66904 32.4611C6.61776 32.4611 6.58315 32.4958 6.58315 32.547C6.58315 37.4816 6.58315 42.415 6.58315 47.3496C6.58315 47.3958 6.62289 47.4355 6.66904 47.4355C8.02033 47.4355 9.37289 47.4355 10.7242 47.4355C10.769 47.4355 10.8088 47.3945 10.8088 47.3496C10.8088 42.415 10.8088 37.4816 10.8088 32.547C10.8088 32.4996 10.7729 32.4611 10.7242 32.4611Z" fill="#333333"/>
<path d="M19.815 24.8202C21.1663 24.8202 22.5189 24.8202 23.8702 24.8202C25.3279 24.8202 26.5189 26.0138 26.5189 27.4715C26.5189 34.0984 26.5189 40.724 26.5189 47.351C26.5189 48.8099 25.3291 49.9997 23.8702 49.9997C22.5189 49.9997 21.1663 49.9997 19.815 49.9997C18.3586 49.9997 17.165 48.8086 17.165 47.351C17.165 40.724 17.165 34.0984 17.165 27.4715C17.165 26.0125 18.3561 24.8202 19.815 24.8202ZM23.8702 27.3843C22.5189 27.3843 21.1663 27.3843 19.815 27.3843C19.765 27.3843 19.7291 27.4215 19.7291 27.4715C19.7291 34.0984 19.7291 40.724 19.7291 47.351C19.7291 47.3997 19.7676 47.4356 19.815 47.4356C21.1663 47.4356 22.5189 47.4356 23.8702 47.4356C23.915 47.4356 23.9548 47.3958 23.9548 47.351C23.9548 40.724 23.9548 34.0984 23.9548 27.4715C23.9548 27.4228 23.9202 27.3843 23.8702 27.3843Z" fill="#333333"/>
<path d="M32.961 20.09C34.3123 20.09 35.6649 20.09 37.0162 20.09C38.4739 20.09 39.6649 21.2836 39.6649 22.74C39.6649 30.9438 39.6649 39.1464 39.6649 47.3502C39.6649 48.8066 38.4739 50.0002 37.0162 50.0002C35.6649 50.0002 34.3123 50.0002 32.961 50.0002C31.5033 50.0002 30.311 48.8079 30.311 47.3502C30.311 39.1464 30.311 30.9438 30.311 22.74C30.311 21.2823 31.5033 20.09 32.961 20.09ZM37.0162 22.6541C35.6649 22.6541 34.3123 22.6541 32.961 22.6541C32.911 22.6541 32.8751 22.6912 32.8751 22.74C32.8751 30.9438 32.8751 39.1464 32.8751 47.3502C32.8751 47.3989 32.911 47.4361 32.961 47.4361C34.3123 47.4361 35.6649 47.4361 37.0162 47.4361C37.0649 47.4361 37.1008 47.3977 37.1008 47.3502C37.1008 39.1464 37.1008 30.9438 37.1008 22.74C37.1008 22.6925 37.0649 22.6541 37.0162 22.6541Z" fill="#333333"/>
<path d="M46.1007 14.6461C47.452 14.6461 48.8045 14.6461 50.1558 14.6461C51.6135 14.6461 52.8045 15.8397 52.8045 17.2961C52.8045 27.3141 52.8045 37.332 52.8045 47.35C52.8045 48.8064 51.6135 50 50.1558 50C48.8045 50 47.452 50 46.1007 50C44.643 50 43.4507 48.8077 43.4507 47.35C43.4507 37.332 43.4507 27.3141 43.4507 17.2961C43.4507 15.8384 44.643 14.6461 46.1007 14.6461ZM50.1558 17.2102C48.8045 17.2102 47.452 17.2102 46.1007 17.2102C46.0507 17.2102 46.0148 17.2474 46.0148 17.2961C46.0148 27.3141 46.0148 37.332 46.0148 47.35C46.0148 47.3987 46.0507 47.4359 46.1007 47.4359C47.452 47.4359 48.8045 47.4359 50.1558 47.4359C50.2045 47.4359 50.2404 47.3974 50.2404 47.35C50.2404 37.332 50.2404 27.3141 50.2404 17.2961C50.2404 17.2487 50.2045 17.2102 50.1558 17.2102Z" fill="#333333"/>
<path d="M39.7449 11.4192C27.5141 17.1051 15.2821 22.7897 3.05128 28.4756C2.03333 26.2641 1.01667 24.0526 0 21.841C12.2308 16.1551 24.4628 10.4679 36.6936 4.78205C35.9603 3.18846 35.2282 1.59359 34.4949 0C40.4103 0.548718 46.3256 1.09872 52.241 1.65256C48.8064 6.50256 45.3731 11.3423 41.9385 16.1923C41.2077 14.6013 40.4756 13.0103 39.7449 11.4192ZM4.29872 25.0756C16.5295 19.3897 28.7603 13.7051 40.991 8.01923C41.4654 9.04872 41.9385 10.0782 42.4128 11.1077C44.141 8.66538 45.8667 6.22564 47.5962 3.78462C44.6192 3.50769 41.641 3.22949 38.6641 2.95256C39.1346 3.9782 39.6064 5.00513 40.0769 6.03077C27.8462 11.7167 15.6154 17.4026 3.38462 23.0885C3.68974 23.7513 3.99359 24.4128 4.29872 25.0756Z" fill="#333333"/>
</svg>
