<svg width="46" height="50" viewBox="0 0 46 50" fill="none" xmlns="http://www.w3.org/2000/svg">
<path d="M6.45761 19.0011H29.7065C30.4198 19.0011 30.9959 18.425 30.9959 17.7089C30.9959 16.995 30.4198 16.4167 29.7065 16.4167H6.45761C5.74373 16.4167 5.1665 16.9956 5.1665 17.7089C5.1665 18.4256 5.74373 19.0011 6.45761 19.0011Z" fill="#333333"/>
<path d="M6.45761 26.7522H29.7065C30.4198 26.7522 30.9959 26.1733 30.9959 25.46C30.9959 24.7461 30.4198 24.1678 29.7065 24.1678H6.45761C5.74373 24.1678 5.1665 24.7461 5.1665 25.46C5.1665 26.1733 5.74373 26.7522 6.45761 26.7522Z" fill="#333333"/>
<path d="M6.45761 34.5011H29.7065C30.4198 34.5011 30.9959 33.925 30.9959 33.2089C30.9959 32.495 30.4198 31.9167 29.7065 31.9167H6.45761C5.74373 31.9167 5.1665 32.495 5.1665 33.2089C5.1665 33.9245 5.74373 34.5011 6.45761 34.5011Z" fill="#333333"/>
<path d="M36.1628 11.2523C36.1628 9.82506 35.0083 8.66895 33.5811 8.66895H2.58333C1.15833 8.66895 0 9.82506 0 11.2523V47.4156C0 48.8428 1.15833 50.0001 2.58333 50.0001H25.8328L36.1633 39.6667V11.2523H36.1628ZM25.8328 46.3467V39.6667H32.5111L25.8328 46.3467ZM33.5811 37.0823H25.8328C24.4028 37.0823 23.2483 38.2401 23.2483 39.6667V47.4151H2.58333V11.2523H33.5811V37.0823Z" fill="#333333"/>
<path d="M38.1771 4.33447H26.3132H19.0443H7.18099C5.75599 4.33447 4.59766 5.49058 4.59766 6.91781V7.88058H7.18099V6.91781H19.0443H26.3132H38.1771V43.0811H33.8621L31.2793 45.6656H38.1777C39.6015 45.6656 40.7621 44.5084 40.7621 43.0811V6.91781C40.7621 5.49058 39.6015 4.33447 38.1771 4.33447Z" fill="#333333"/>
<path d="M42.7748 0H30.9109H23.6415H11.7787C10.3526 0 9.19482 1.15611 9.19482 2.58333V3.54667H11.7787V2.58333H23.642H30.9115H42.7748V38.7467H41.5498V41.3311H42.7748C44.2004 41.3311 45.3576 40.1739 45.3576 38.7467V2.58333C45.3576 1.15611 44.2004 0 42.7748 0Z" fill="#333333"/>
</svg>
