<svg width="11" height="12" viewBox="0 0 11 12" fill="none" xmlns="http://www.w3.org/2000/svg">
<path d="M2.41674 11.66L2.55174 11.51L2.67174 11.435L2.80674 11.51C3.00174 11.36 3.16674 11.195 3.30174 11.03C3.43674 10.865 3.69174 10.43 4.09674 9.755L5.02674 8.18C5.52174 7.34 8.11674 3.815 8.70174 3.155C10.0517 1.61 10.5017 1.145 10.6817 0.904999C10.8467 0.694999 10.9517 0.53 10.9517 0.41C10.9517 0.335 10.9067 0.214999 10.8317 0.214999C10.7567 0.214999 10.6367 0.274999 10.4867 0.38L10.6067 0.11L10.0967 0.41L10.1267 0.2C10.0967 0.289999 9.85674 0.53 9.79674 0.53C9.75174 0.53 9.73674 0.484999 9.73674 0.41V0.349999L9.31674 0.559999C9.28674 0.559999 9.25674 0.545 9.25674 0.499999C9.25674 0.455 9.28674 0.349999 9.31674 0.2C9.10674 0.424999 8.80674 0.68 8.41674 0.95C7.89174 1.31 5.85174 3.875 5.02674 5.21C4.47174 6.095 4.24674 6.62 4.15674 6.62C4.12674 6.62 4.11174 6.56 4.09674 6.44C3.82674 7.055 3.58674 7.565 3.34674 7.94C3.10674 8.315 2.88174 8.51 2.71674 8.51C2.52174 8.51 2.35674 8.135 2.17674 7.37C2.10174 7.04 1.93674 6.83 1.69674 6.71L1.65174 6.695C1.60674 6.695 1.54674 6.725 1.47174 6.77C1.39674 6.815 1.35174 6.86 1.32174 6.86H1.30674L1.03674 6.77L0.796738 7.13C0.766738 7.175 0.706738 7.19 0.661738 7.19C0.586738 7.19 0.526738 7.175 0.496738 7.13C0.436738 7.34 0.361738 7.445 0.301738 7.445C0.256738 7.445 0.166738 7.415 0.0467383 7.34C0.151738 8.135 0.241738 8.66 0.331738 8.915C0.511738 9.41 0.916738 10.535 1.30674 11.285C1.35174 11.375 1.41174 11.48 1.45674 11.57C1.60674 11.48 1.65174 11.465 1.75674 11.465L1.87674 11.48C1.95174 11.51 1.99674 11.555 1.99674 11.63L2.34174 11.465C2.40174 11.465 2.41674 11.525 2.41674 11.66Z" fill="#5CB85C"/>
</svg>
