<svg width="240" height="140" viewBox="0 0 240 140" fill="none" xmlns="http://www.w3.org/2000/svg">
<g clip-path="url(#clip0_2302:2382)">
<path d="M65.5277 118.18C72.0432 118.18 77.325 112.889 77.325 106.362C77.325 99.8349 72.0432 94.5438 65.5277 94.5438C59.0123 94.5438 53.7305 99.8349 53.7305 106.362C53.7305 112.889 59.0123 118.18 65.5277 118.18Z" fill="#EC7B2F"/>
<path opacity="0.2" d="M56.8175 98.4684C55.717 101.047 55.5677 103.934 56.3963 106.612C57.2248 109.291 58.9772 111.587 61.3403 113.091C63.7033 114.594 66.5231 115.207 69.2957 114.82C72.0683 114.432 74.613 113.07 76.4752 110.976C75.803 112.552 74.7969 113.962 73.5266 115.109C72.2564 116.256 70.7523 117.113 69.1186 117.62C67.4849 118.127 65.7608 118.273 64.0655 118.046C62.3702 117.819 60.7444 117.226 59.3007 116.308C57.857 115.389 56.6299 114.167 55.7045 112.726C54.7791 111.285 54.1774 109.66 53.9412 107.963C53.705 106.266 53.8399 104.538 54.3365 102.899C54.8332 101.259 55.6797 99.7476 56.8175 98.4684Z" fill="black"/>
<path d="M65.5613 106.362H65.5935L66.177 139.868H64.9453L65.5613 106.362Z" fill="#3F3D56"/>
<path d="M41.6605 96.1409C54.7968 96.1409 65.4459 85.4731 65.4459 72.3137C65.4459 59.1543 54.7968 48.4865 41.6605 48.4865C28.5241 48.4865 17.875 59.1543 17.875 72.3137C17.875 85.4731 28.5241 96.1409 41.6605 96.1409Z" fill="#EC7B2F"/>
<path opacity="0.2" d="M24.0973 56.399C21.8787 61.598 21.5777 67.4178 23.2482 72.8186C24.9187 78.2193 28.4518 82.8491 33.2161 85.8806C37.9805 88.912 43.6656 90.1476 49.2557 89.3666C54.8457 88.5856 59.9764 85.8388 63.7309 81.6171C62.3756 84.7934 60.3471 87.6366 57.786 89.9496C55.2249 92.2626 52.1925 93.9902 48.8987 95.0127C45.6049 96.0351 42.1287 96.328 38.7107 95.871C35.2927 95.414 32.0148 94.218 29.104 92.3659C26.1933 90.5139 23.7193 88.05 21.8534 85.1451C19.9876 82.2401 18.7745 78.9635 18.2983 75.5423C17.822 72.121 18.094 68.637 19.0953 65.3315C20.0966 62.026 21.8034 58.9782 24.0973 56.399Z" fill="black"/>
<path d="M41.7258 72.3137H41.7913L42.9675 139.868H40.4844L41.7258 72.3137Z" fill="#3F3D56"/>
<path d="M198.479 104.902H89.457V137.278H198.479V104.902Z" fill="#E3E3E3"/>
<path d="M150.321 111.593H137.609V137.278H150.321V111.593Z" fill="#CACACA"/>
<path d="M192.123 66.699H95.8125V96.4845H192.123V66.699Z" fill="#E3E3E3"/>
<path d="M201.886 68.5337H86.0477C85.8543 68.5337 85.6653 68.4757 85.505 68.3673C85.3448 68.2589 85.2205 68.1049 85.1483 67.9252C85.0761 67.7455 85.0591 67.5483 85.0997 67.3588C85.1402 67.1694 85.2364 66.9964 85.3758 66.8622L117.035 36.3781V23.1C117.035 22.8425 117.137 22.5956 117.319 22.4135C117.501 22.2314 117.747 22.129 118.004 22.1287H124.252C124.509 22.129 124.756 22.2314 124.938 22.4135C125.119 22.5956 125.222 22.8425 125.222 23.1V28.4946L127.613 26.1921C131.526 22.4242 136.718 20.2795 142.145 20.1891C147.572 20.0987 152.831 22.0693 156.867 25.7048L202.534 66.8401C202.68 66.9715 202.783 67.1441 202.829 67.3351C202.875 67.5261 202.862 67.7266 202.791 67.9101C202.721 68.0936 202.597 68.2514 202.435 68.3627C202.274 68.474 202.082 68.5336 201.886 68.5337V68.5337Z" fill="#CACACA"/>
<path d="M121.234 74.2533C122.041 74.2533 122.839 74.4124 123.584 74.7215C124.329 75.0307 125.006 75.4838 125.576 76.055C126.147 76.6262 126.599 77.3043 126.907 78.0506C127.216 78.7969 127.375 79.5968 127.375 80.4046V88.7144H115.094V80.4046C115.094 78.7732 115.741 77.2086 116.892 76.055C118.044 74.9014 119.606 74.2533 121.234 74.2533Z" fill="white"/>
<path d="M143.965 74.3612C144.771 74.3612 145.57 74.5203 146.315 74.8294C147.06 75.1386 147.737 75.5917 148.307 76.1629C148.877 76.7341 149.329 77.4122 149.638 78.1585C149.947 78.9049 150.105 79.7048 150.105 80.5126V88.8223H137.824V80.5126C137.824 79.7048 137.983 78.9049 138.292 78.1586C138.6 77.4122 139.053 76.7341 139.623 76.1629C140.193 75.5917 140.87 75.1386 141.615 74.8295C142.36 74.5203 143.158 74.3612 143.965 74.3612Z" fill="white"/>
<path d="M166.695 74.4691C167.502 74.4691 168.3 74.6282 169.045 74.9374C169.79 75.2465 170.467 75.6996 171.037 76.2708C171.608 76.842 172.06 77.5201 172.368 78.2664C172.677 79.0128 172.836 79.8127 172.836 80.6205V88.9302H160.555V80.6205C160.555 79.8127 160.714 79.0128 161.022 78.2664C161.331 77.5201 161.783 76.842 162.353 76.2708C162.923 75.6996 163.6 75.2465 164.345 74.9374C165.09 74.6282 165.889 74.4691 166.695 74.4691Z" fill="white"/>
<path d="M175.746 111.269C177.375 111.269 178.937 111.917 180.088 113.071C181.24 114.225 181.887 115.789 181.887 117.421V125.73H169.605V117.421C169.605 115.789 170.252 114.225 171.404 113.071C172.556 111.917 174.117 111.269 175.746 111.269Z" fill="white"/>
<path d="M114.984 111.269C116.613 111.269 118.175 111.917 119.326 113.071C120.478 114.225 121.125 115.789 121.125 117.421V125.73H108.844V117.421C108.844 116.613 109.003 115.813 109.311 115.067C109.62 114.32 110.072 113.642 110.642 113.071C111.212 112.5 111.889 112.047 112.634 111.738C113.379 111.429 114.178 111.269 114.984 111.269Z" fill="white"/>
<path d="M214.403 105.408L193.951 96.3425C193.841 96.2938 193.723 96.2687 193.603 96.2687H96.1348C96.0236 96.2687 95.9133 96.2902 95.8103 96.3322L73.549 105.397C73.3638 105.473 73.2106 105.61 73.1155 105.786C73.0204 105.963 72.9894 106.166 73.0277 106.363C73.0661 106.559 73.1714 106.736 73.3257 106.864C73.48 106.991 73.6737 107.061 73.8735 107.061H79.6493V136.846H79.0029V139.868H208.925V136.846H207.847V107.061H214.054C214.251 107.061 214.443 106.993 214.597 106.868C214.75 106.743 214.856 106.569 214.897 106.376C214.938 106.182 214.911 105.98 214.821 105.804C214.731 105.628 214.583 105.488 214.403 105.408ZM206.124 136.846H81.3729V107.061H206.124V136.846Z" fill="#CACACA"/>
<path d="M128.885 87.5272H113.156V90.1173H128.885V87.5272Z" fill="#CACACA"/>
<path d="M151.939 87.5272H136.211V90.1173H151.939V87.5272Z" fill="#CACACA"/>
<path d="M174.99 87.5272H159.262V90.1173H174.99V87.5272Z" fill="#CACACA"/>
<path d="M183.611 124.867H167.883V127.457H183.611V124.867Z" fill="#CACACA"/>
<path d="M122.635 124.867H106.906V127.457H122.635V124.867Z" fill="#CACACA"/>
<path d="M239.736 140H0.264026C0.194002 140 0.126846 139.972 0.0773313 139.923C0.0278168 139.873 0 139.806 0 139.736C0 139.665 0.0278168 139.598 0.0773313 139.549C0.126846 139.499 0.194002 139.471 0.264026 139.471H239.736C239.806 139.471 239.873 139.499 239.923 139.549C239.972 139.598 240 139.665 240 139.736C240 139.806 239.972 139.873 239.923 139.923C239.873 139.972 239.806 140 239.736 140Z" fill="#3F3D56"/>
<path d="M176.368 117.693L176.293 116.763C176.197 116.398 175.287 117.543 175.179 117.568C174.892 117.507 174.597 117.494 174.305 117.528C174.344 115.86 174.088 116.617 173.344 117.369C170.947 118.586 171.826 122.431 174.555 122.451C177.044 122.596 178.282 119.208 176.368 117.693Z" fill="#3F3D56"/>
<path d="M176.704 121.465C177.696 121.449 178.945 124.938 176.593 124.956C175.376 124.965 173.221 125.203 173.221 125.203C173.221 125.203 171.547 122.685 172.293 121.119L176.704 121.465Z" fill="#3F3D56"/>
<path d="M174.52 123.308V125.116H175.363L176.032 123.275" fill="#3F3D56"/>
<path d="M175.366 125.149C175.349 125.13 174.454 125.19 174.489 125.116L174.489 123.308C174.639 123.066 174.519 125.106 174.555 125.083H175.343C175.382 125.06 175.964 123.209 176.046 123.244C176.05 123.246 176.054 123.248 176.057 123.251C176.061 123.254 176.063 123.257 176.065 123.261C176.067 123.265 176.068 123.27 176.068 123.274C176.068 123.278 176.068 123.283 176.066 123.287C176.035 123.309 175.429 125.16 175.366 125.149Z" fill="white"/>
<path d="M177.397 125.005C177.421 125.302 175.992 125.302 176.016 125.005C175.992 124.708 177.421 124.708 177.397 125.005Z" fill="#3F3D56"/>
<path d="M176.364 124.808C176.282 124.828 176.003 123.456 176.851 123.262C176.026 123.703 176.451 124.721 176.364 124.808Z" fill="white"/>
<path d="M177.535 124.506C177.53 124.5 177.527 124.493 177.523 124.486L177.414 124.49L177.535 124.506Z" fill="#3F3D56"/>
<path d="M181.119 123.462C180.633 122.738 179.694 123.067 179.327 123.729C178.891 124.528 177.03 123.934 177.262 125.007C178.425 124.761 181.864 125.602 181.119 123.462Z" fill="#3F3D56"/>
<path d="M174.411 122.213C173.648 122.362 172.302 121.415 172.266 121.136C172.262 121.128 172.261 121.119 172.263 121.111C172.265 121.103 172.27 121.096 172.277 121.091C172.285 121.087 172.293 121.085 172.302 121.087C172.31 121.089 172.317 121.094 172.322 121.101C172.582 121.471 172.939 121.76 173.354 121.937C173.998 122.263 175.173 122.27 176.733 121.448C176.052 121.929 175.244 122.195 174.411 122.213Z" fill="white"/>
<path d="M174.551 120.54C174.379 120.594 174.229 120.177 174.387 120.31C174.387 120.353 174.404 120.395 174.435 120.426C174.466 120.457 174.508 120.475 174.551 120.475C174.692 120.488 174.685 120.335 174.749 120.277C174.858 120.365 174.67 120.557 174.551 120.54Z" fill="white"/>
<path d="M174.239 125.011C174.174 125.02 173.712 123.36 173.681 123.335C173.679 123.326 173.679 123.317 173.683 123.31C173.687 123.302 173.694 123.296 173.703 123.293C173.789 123.259 174.231 124.946 174.27 124.968C174.272 124.973 174.272 124.978 174.271 124.983C174.27 124.988 174.268 124.993 174.265 124.997C174.262 125.001 174.258 125.005 174.254 125.007C174.249 125.009 174.244 125.011 174.239 125.011Z" fill="white"/>
<path d="M175.62 125.236C175.644 125.533 174.215 125.533 174.239 125.236C174.215 124.939 175.644 124.939 175.62 125.236Z" fill="#3F3D56"/>
<path d="M174.503 125.203C174.527 125.5 173.098 125.5 173.121 125.203C173.098 124.906 174.527 124.906 174.503 125.203Z" fill="#3F3D56"/>
<path d="M174.831 119.898C174.839 120.029 174.296 120.029 174.305 119.898C174.296 119.767 174.84 119.767 174.831 119.898Z" fill="white"/>
<path d="M172.799 119.905C172.875 119.816 172.969 119.743 173.075 119.694C173.182 119.644 173.298 119.618 173.415 119.618C173.532 119.618 173.648 119.644 173.754 119.694C173.861 119.743 173.955 119.816 174.031 119.905C174.879 119.117 173.624 117.801 172.799 118.613C172.712 118.697 172.643 118.797 172.595 118.908C172.548 119.019 172.523 119.139 172.523 119.259C172.523 119.38 172.548 119.5 172.595 119.611C172.643 119.722 172.712 119.822 172.799 119.905Z" fill="white"/>
<path d="M175.209 119.905C175.285 119.816 175.379 119.743 175.485 119.694C175.592 119.644 175.708 119.618 175.825 119.618C175.942 119.618 176.058 119.644 176.165 119.694C176.271 119.743 176.365 119.816 176.441 119.905C177.289 119.117 176.034 117.801 175.209 118.613C175.122 118.697 175.053 118.797 175.005 118.908C174.958 119.019 174.934 119.139 174.934 119.259C174.934 119.38 174.958 119.5 175.005 119.611C175.053 119.722 175.122 119.822 175.209 119.905Z" fill="white"/>
<path d="M173.025 119.039C173.105 119.041 173.181 119.074 173.237 119.132C173.292 119.189 173.324 119.266 173.324 119.346C173.324 119.426 173.292 119.503 173.237 119.561C173.181 119.618 173.105 119.651 173.025 119.653C172.945 119.651 172.869 119.618 172.814 119.561C172.758 119.503 172.727 119.426 172.727 119.346C172.727 119.266 172.758 119.189 172.814 119.132C172.869 119.074 172.945 119.041 173.025 119.039Z" fill="#3F3D56"/>
<path d="M175.431 119.039C175.511 119.041 175.587 119.074 175.643 119.132C175.699 119.189 175.73 119.266 175.73 119.346C175.73 119.426 175.699 119.503 175.643 119.561C175.587 119.618 175.511 119.651 175.431 119.653C175.351 119.651 175.275 119.618 175.22 119.561C175.164 119.503 175.133 119.426 175.133 119.346C175.133 119.266 175.164 119.189 175.22 119.132C175.276 119.074 175.351 119.041 175.431 119.039Z" fill="#3F3D56"/>
<path d="M175.851 120.017C175.921 120.019 175.988 120.048 176.037 120.099C176.086 120.149 176.113 120.216 176.113 120.286C176.113 120.357 176.086 120.424 176.037 120.474C175.988 120.525 175.921 120.554 175.851 120.556C175.781 120.554 175.715 120.525 175.666 120.474C175.617 120.424 175.59 120.357 175.59 120.286C175.59 120.216 175.617 120.149 175.666 120.099C175.715 120.048 175.781 120.019 175.851 120.017Z" fill="#FF6584"/>
<path d="M173.422 120.017C173.492 120.019 173.558 120.048 173.607 120.099C173.656 120.149 173.683 120.216 173.683 120.286C173.683 120.357 173.656 120.424 173.607 120.474C173.558 120.525 173.492 120.554 173.422 120.556C173.352 120.554 173.285 120.525 173.236 120.474C173.187 120.424 173.16 120.357 173.16 120.286C173.16 120.216 173.187 120.149 173.236 120.099C173.285 120.048 173.352 120.019 173.422 120.017Z" fill="#FF6584"/>
<path d="M96.2901 15.4007C96.2221 15.4006 96.1566 15.3747 96.1069 15.3283C96.0572 15.2818 96.0269 15.2182 96.0222 15.1502C95.8464 12.7574 94.7751 10.5193 93.0227 8.88381C91.2702 7.24832 88.9659 6.33608 86.5708 6.32962C86.2842 6.32962 85.9831 6.34422 85.6758 6.37302C85.6244 6.37786 85.5727 6.36777 85.5269 6.34395C85.4811 6.32014 85.4431 6.28362 85.4175 6.23874C84.3173 4.30965 82.6743 2.74784 80.6937 1.74822C78.713 0.748614 76.4823 0.355474 74.28 0.617863C72.0777 0.880253 70.0013 1.78655 68.3099 3.22366C66.6185 4.66077 65.3871 6.56504 64.7693 8.69882C64.753 8.756 64.7181 8.80612 64.6703 8.8413C64.6224 8.87648 64.5642 8.89471 64.5049 8.89313L64.4334 8.89097C64.3962 8.88972 64.3591 8.8884 64.3216 8.8884C62.5049 8.8941 60.7448 9.52185 59.3333 10.6675C57.9218 11.8131 56.9438 13.4078 56.5615 15.1869C56.5487 15.2474 56.5157 15.3016 56.4678 15.3405C56.4199 15.3794 56.36 15.4007 56.2984 15.4007H38.2853C38.25 15.4008 38.2149 15.3939 38.1822 15.3804C38.1495 15.3669 38.1197 15.3471 38.0947 15.3221C38.0696 15.2971 38.0497 15.2673 38.0362 15.2346C38.0226 15.2019 38.0156 15.1668 38.0156 15.1313C38.0156 15.0959 38.0226 15.0608 38.0362 15.0281C38.0497 14.9953 38.0696 14.9656 38.0947 14.9406C38.1197 14.9156 38.1495 14.8957 38.1822 14.8823C38.2149 14.8688 38.25 14.8619 38.2853 14.862H56.0832C56.5312 13.0115 57.5851 11.3647 59.0767 10.1843C60.5682 9.0039 62.4115 8.35803 64.3123 8.34971C64.989 6.15698 66.2868 4.2083 68.048 2.74041C69.8093 1.27252 71.9582 0.348601 74.2336 0.0808928C76.5091 -0.186815 78.8132 0.213213 80.866 1.23238C82.9188 2.25154 84.632 3.84598 85.7974 5.82198C86.0619 5.80134 86.3214 5.79095 86.5708 5.79095C89.1019 5.79781 91.537 6.76189 93.3889 8.49026C95.2408 10.2186 96.3729 12.5838 96.5586 15.1125C96.5611 15.1478 96.5566 15.1832 96.5454 15.2168C96.5342 15.2503 96.5165 15.2813 96.4934 15.308C96.4702 15.3347 96.442 15.3566 96.4104 15.3724C96.3788 15.3882 96.3444 15.3976 96.3092 15.4C96.3028 15.4005 96.2964 15.4007 96.2901 15.4007Z" fill="#CBCBCB"/>
<path d="M93.0867 18.8541H48.9915C48.9202 18.8541 48.8518 18.8257 48.8014 18.7752C48.751 18.7247 48.7227 18.6562 48.7227 18.5848C48.7227 18.5133 48.751 18.4448 48.8014 18.3943C48.8518 18.3438 48.9202 18.3154 48.9915 18.3154H93.0867C93.158 18.3154 93.2264 18.3438 93.2769 18.3943C93.3273 18.4448 93.3556 18.5133 93.3556 18.5848C93.3556 18.6562 93.3273 18.7247 93.2769 18.7752C93.2264 18.8257 93.158 18.8541 93.0867 18.8541Z" fill="#CBCBCB"/>
<path d="M59.7483 22.7596H44.9603C44.889 22.7596 44.8206 22.7313 44.7702 22.6807C44.7197 22.6302 44.6914 22.5617 44.6914 22.4903C44.6914 22.4189 44.7197 22.3504 44.7702 22.2998C44.8206 22.2493 44.889 22.2209 44.9603 22.2209H59.7483C59.8196 22.2209 59.888 22.2493 59.9384 22.2998C59.9888 22.3504 60.0172 22.4189 60.0172 22.4903C60.0172 22.5617 59.9888 22.6302 59.9384 22.6807C59.888 22.7313 59.8196 22.7596 59.7483 22.7596Z" fill="#CBCBCB"/>
<path d="M237.544 35.5019C237.476 35.5018 237.411 35.4759 237.361 35.4294C237.311 35.383 237.281 35.3194 237.276 35.2514C237.1 32.8586 236.029 30.6205 234.277 28.985C232.524 27.3495 230.22 26.4373 227.825 26.4308C227.538 26.4308 227.237 26.4454 226.93 26.4742C226.878 26.479 226.827 26.469 226.781 26.4451C226.735 26.4213 226.697 26.3848 226.671 26.3399C225.571 24.4108 223.928 22.849 221.948 21.8494C219.967 20.8498 217.736 20.4567 215.534 20.7191C213.332 20.9814 211.255 21.8877 209.564 23.3249C207.872 24.762 206.641 26.6662 206.023 28.8C206.007 28.8572 205.972 28.9073 205.924 28.9425C205.876 28.9777 205.818 28.9959 205.759 28.9943L205.687 28.9922C205.65 28.9909 205.613 28.9896 205.575 28.9896C203.759 28.9953 201.999 29.623 200.587 30.7687C199.176 31.9143 198.198 33.509 197.815 35.2881C197.803 35.3486 197.77 35.4028 197.722 35.4417C197.674 35.4806 197.614 35.5019 197.552 35.5019H179.539C179.504 35.502 179.469 35.4951 179.436 35.4816C179.403 35.4681 179.374 35.4483 179.349 35.4233C179.324 35.3983 179.304 35.3685 179.29 35.3358C179.277 35.3031 179.27 35.268 179.27 35.2325C179.27 35.1971 179.277 35.162 179.29 35.1293C179.304 35.0965 179.324 35.0668 179.349 35.0418C179.374 35.0168 179.403 34.9969 179.436 34.9835C179.469 34.97 179.504 34.9631 179.539 34.9632H197.337C197.785 33.1127 198.839 31.4658 200.331 30.2855C201.822 29.1051 203.665 28.4592 205.566 28.4509C206.243 26.2582 207.541 24.3095 209.302 22.8416C211.063 21.3737 213.212 20.4498 215.488 20.1821C217.763 19.9144 220.067 20.3144 222.12 21.3336C224.173 22.3527 225.886 23.9472 227.051 25.9232C227.316 25.9025 227.575 25.8921 227.825 25.8921C230.356 25.899 232.791 26.8631 234.643 28.5915C236.495 30.3198 237.627 32.685 237.813 35.2137C237.815 35.249 237.81 35.2844 237.799 35.3179C237.788 35.3515 237.77 35.3825 237.747 35.4092C237.724 35.4359 237.696 35.4578 237.664 35.4736C237.633 35.4894 237.598 35.4988 237.563 35.5012C237.557 35.5017 237.55 35.5019 237.544 35.5019Z" fill="#CBCBCB"/>
<path d="M234.341 38.9554H190.245C190.174 38.9554 190.106 38.927 190.055 38.8765C190.005 38.826 189.977 38.7575 189.977 38.6861C189.977 38.6146 190.005 38.5461 190.055 38.4956C190.106 38.4451 190.174 38.4167 190.245 38.4167H234.341C234.412 38.4167 234.48 38.4451 234.531 38.4956C234.581 38.5461 234.61 38.6146 234.61 38.6861C234.61 38.7575 234.581 38.826 234.531 38.8765C234.48 38.927 234.412 38.9554 234.341 38.9554Z" fill="#CBCBCB"/>
<path d="M201.002 42.8608H186.214C186.143 42.8608 186.074 42.8325 186.024 42.7819C185.974 42.7314 185.945 42.6629 185.945 42.5915C185.945 42.52 185.974 42.4515 186.024 42.401C186.074 42.3505 186.143 42.3221 186.214 42.3221H201.002C201.074 42.3221 201.142 42.3505 201.192 42.401C201.243 42.4515 201.271 42.52 201.271 42.5915C201.271 42.6629 201.243 42.7314 201.192 42.7819C201.142 42.8325 201.074 42.8608 201.002 42.8608Z" fill="#CBCBCB"/>
<path d="M47.3936 135.247C50.8013 136.227 50.8417 131.403 51.3839 129.232C49.4578 130.546 46.2102 132.419 47.4062 135.188" fill="#EC7B2F"/>
<path d="M47.5808 138.99C47.1332 136.454 47.1049 133.242 49.5892 131.743C49.7078 131.668 49.8172 131.856 49.6989 131.931C47.3005 133.384 47.3717 136.487 47.7909 138.932C47.7974 138.96 47.793 138.989 47.7786 139.013C47.7642 139.037 47.741 139.055 47.7138 139.063C47.6866 139.07 47.6575 139.067 47.6327 139.053C47.6079 139.04 47.5893 139.017 47.5809 138.99L47.5808 138.99Z" fill="#3F3D56"/>
<path d="M48.6836 137.196C50.243 139.293 52.4146 136.485 53.6987 135.456C51.9858 135.365 49.2497 135.011 48.7173 137.167" fill="#EC7B2F"/>
<path d="M47.1471 139.633C48.0286 137.942 49.4363 136.031 51.5822 136.272C51.7216 136.284 51.6868 136.499 51.5477 136.487C49.5093 136.276 48.183 138.112 47.346 139.722C47.2777 139.843 47.0781 139.755 47.1471 139.633Z" fill="#3F3D56"/>
<path d="M220.533 135.247C217.126 136.227 217.085 131.403 216.543 129.232C218.469 130.546 221.717 132.419 220.521 135.188" fill="#EC7B2F"/>
<path d="M220.345 138.99C220.792 136.454 220.821 133.242 218.336 131.743C218.218 131.668 218.108 131.856 218.227 131.931C220.625 133.384 220.554 136.487 220.135 138.932C220.128 138.96 220.133 138.989 220.147 139.013C220.161 139.037 220.185 139.055 220.212 139.063C220.239 139.07 220.268 139.067 220.293 139.053C220.318 139.04 220.336 139.017 220.345 138.99L220.345 138.99Z" fill="#3F3D56"/>
<path d="M219.242 137.196C217.682 139.293 215.511 136.485 214.227 135.456C215.939 135.365 218.676 135.011 219.208 137.167" fill="#EC7B2F"/>
<path d="M220.778 139.633C219.896 137.942 218.489 136.031 216.343 136.272C216.203 136.284 216.238 136.499 216.377 136.487C218.416 136.276 219.742 138.112 220.579 139.722C220.647 139.843 220.847 139.755 220.778 139.633Z" fill="#3F3D56"/>
<path d="M234.862 131.879C228.922 133.587 228.851 125.177 227.906 121.393C231.264 123.683 236.925 126.949 234.84 131.776" fill="#EC7B2F"/>
<path d="M234.535 138.403C235.315 133.982 235.364 128.383 231.034 125.769C230.827 125.639 230.636 125.967 230.843 126.098C235.024 128.631 234.899 134.04 234.169 138.302C234.157 138.35 234.165 138.4 234.19 138.443C234.215 138.485 234.256 138.516 234.303 138.529C234.351 138.543 234.401 138.537 234.444 138.513C234.488 138.489 234.52 138.45 234.535 138.403L234.535 138.403Z" fill="#3F3D56"/>
<path d="M232.609 135.275C229.891 138.931 226.106 134.036 223.867 132.242C226.853 132.083 231.623 131.467 232.551 135.225" fill="#EC7B2F"/>
<path d="M235.288 139.524C233.752 136.577 231.298 133.245 227.557 133.665C227.314 133.686 227.375 134.061 227.617 134.041C231.171 133.672 233.483 136.874 234.942 139.679C235.061 139.89 235.409 139.737 235.288 139.524Z" fill="#3F3D56"/>
<path d="M21.0938 138.889H22.097L22.5744 135.012H21.0938V138.889Z" fill="#FFB6B6"/>
<path d="M20.8398 138.561L22.8158 138.561H22.8159C23.1498 138.561 23.4701 138.694 23.7063 138.93C23.9424 139.167 24.0751 139.488 24.0751 139.822V139.863L20.8399 139.863L20.8398 138.561Z" fill="#2F2E41"/>
<path d="M25.8401 138.889H26.8434L27.3208 135.012H25.8398L25.8401 138.889Z" fill="#FFB6B6"/>
<path d="M25.5859 138.561L27.5619 138.561H27.562C27.8959 138.561 28.2162 138.694 28.4524 138.93C28.6885 139.167 28.8212 139.488 28.8212 139.822V139.863L25.586 139.863L25.5859 138.561Z" fill="#2F2E41"/>
<path d="M27.715 121.165C27.7998 121.069 27.8624 120.954 27.8984 120.831C27.9343 120.707 27.9428 120.577 27.9232 120.45C27.9036 120.323 27.8564 120.201 27.7849 120.094C27.7134 119.987 27.6193 119.897 27.5094 119.831L25.8765 111.977L24.0977 112.68L26.262 120.178C26.1625 120.371 26.137 120.593 26.1902 120.803C26.2435 121.013 26.3718 121.196 26.5509 121.318C26.73 121.44 26.9474 121.491 27.1619 121.463C27.3764 121.435 27.5732 121.329 27.715 121.165H27.715Z" fill="#FFB6B6"/>
<path d="M20.0169 119.653L19.2774 120.405C19.2774 120.405 18.4845 123.316 20.0018 126.905L21.0166 137.313L22.8424 137.451L23.3875 125.342L25.9024 129.362L25.4632 137.408L27.4814 137.361L28.3936 128.445L25.9024 119.142L20.0169 119.653Z" fill="#2F2E41"/>
<path d="M22.6057 120.666C21.4921 120.658 20.3799 120.585 19.2749 120.446L19.2305 120.44L20.3326 115.587L19.9531 109.344L23.5367 109.221C23.8611 109.21 24.1784 109.318 24.4277 109.526C24.677 109.735 24.8407 110.028 24.8874 110.35L25.6209 115.331L26.2994 119.75L26.2903 119.763C25.8027 120.479 24.1726 120.666 22.6057 120.666Z" fill="#EC7B2F"/>
<path d="M23.2109 110.254L23.9391 109.34C23.9391 109.34 25.2155 108.465 25.6195 110.339C26.0235 112.213 26.774 115.255 26.774 115.255L24.2781 115.457L23.2109 110.254Z" fill="#EC7B2F"/>
<path d="M16.3084 121.247C16.2236 121.15 16.161 121.036 16.125 120.913C16.089 120.789 16.0805 120.659 16.1001 120.532C16.1197 120.405 16.1669 120.283 16.2385 120.176C16.31 120.069 16.404 119.979 16.514 119.912L18.1468 112.059L19.9257 112.761L17.7613 120.26C17.8608 120.453 17.8863 120.675 17.8331 120.885C17.7799 121.095 17.6516 121.278 17.4725 121.4C17.2934 121.522 17.076 121.573 16.8614 121.545C16.6469 121.517 16.4501 121.411 16.3084 121.247Z" fill="#FFB6B6"/>
<path d="M20.8131 110.336L20.085 109.421C20.085 109.421 18.8085 108.547 18.4046 110.421C18.0006 112.295 17.25 115.337 17.25 115.337L19.746 115.539L20.8131 110.336Z" fill="#EC7B2F"/>
<path d="M23.8845 108.308H19.1378C19.0402 108.308 18.9466 108.269 18.8775 108.2C18.8085 108.131 18.7696 108.037 18.7695 107.939V105.89C18.7695 105.161 19.0584 104.463 19.5725 103.948C20.0867 103.433 20.7841 103.143 21.5112 103.143C22.2383 103.143 22.9357 103.433 23.4498 103.948C23.964 104.463 24.2528 105.161 24.2528 105.89V107.939C24.2527 108.037 24.2139 108.131 24.1448 108.2C24.0758 108.269 23.9822 108.308 23.8845 108.308Z" fill="#2F2E41"/>
<path d="M22.0335 108.185C23.1437 108.185 24.0436 107.283 24.0436 106.171C24.0436 105.059 23.1437 104.158 22.0335 104.158C20.9234 104.158 20.0234 105.059 20.0234 106.171C20.0234 107.283 20.9234 108.185 22.0335 108.185Z" fill="#FFB6B6"/>
<path d="M24.8991 106.095H21.9966L21.9668 105.677L21.818 106.095H21.3711L21.3121 105.267L21.0171 106.095H20.1523V106.054C20.153 105.478 20.3817 104.925 20.7883 104.518C21.1948 104.111 21.7461 103.882 22.3211 103.881H22.7303C23.3053 103.882 23.8566 104.111 24.2631 104.518C24.6697 104.925 24.8984 105.478 24.8991 106.054V106.095Z" fill="#2F2E41"/>
<path d="M21.9718 108.691C21.9499 108.691 21.9281 108.689 21.9066 108.685L19.7812 108.309V104.791H22.1208L22.0629 104.858C21.257 105.8 21.8642 107.327 22.2978 108.153C22.3298 108.213 22.344 108.282 22.3389 108.35C22.3338 108.418 22.3096 108.484 22.269 108.539C22.235 108.586 22.1903 108.624 22.1387 108.651C22.087 108.677 22.0298 108.691 21.9718 108.691Z" fill="#2F2E41"/>
</g>
<defs>
<clipPath id="clip0_2302:2382">
<rect width="240" height="140" fill="white"/>
</clipPath>
</defs>
</svg>
