<svg width="100" height="34" viewBox="0 0 100 34" fill="none" xmlns="http://www.w3.org/2000/svg">
<g clip-path="url(#clip0_3506_1572)">
<path d="M99.5903 14.0596C99.8596 14.8154 99.9986 15.6113 100.001 16.4135C100.013 17.2306 99.8884 18.0439 99.6316 18.8198C99.1199 20.4114 97.9587 21.7137 96.4338 22.4064C95.6337 22.7808 94.6982 22.968 93.6272 22.968H88.6973V9.95825H93.6272C94.6731 9.95825 95.5961 10.1454 96.3962 10.5198C97.1574 10.8633 97.837 11.3638 98.3902 11.9883C98.9194 12.5958 99.3268 13.2989 99.5903 14.0596ZM96.4 17.7098L96.3962 17.7107C96.5196 17.3005 96.5828 16.8746 96.5839 16.4463C96.5833 16.0234 96.5185 15.603 96.3915 15.1996C96.2737 14.8043 96.0827 14.4344 95.8285 14.1092C95.5701 13.7898 95.2468 13.5285 94.8799 13.3426C94.476 13.14 94.0286 13.0384 93.5766 13.0469H92.0752V19.8793H93.5766C94.0376 19.8917 94.4946 19.7904 94.9071 19.5845C95.2718 19.3956 95.5917 19.131 95.8454 18.8086C96.1012 18.4812 96.2922 18.1083 96.4084 17.7098H96.4Z" fill="#1694F4"/>
<path d="M82.3854 9.9585H79.0078V22.9682H87.078V19.8794H82.3862L82.3854 9.9585Z" fill="#1694F4"/>
<path d="M77.5065 13.7142C77.8818 14.5516 78.0695 15.5318 78.0695 16.655C78.0804 17.5824 77.9149 18.5034 77.5816 19.3692C77.2767 20.1592 76.8127 20.8785 76.2182 21.4826C75.6203 22.0787 74.9053 22.5452 74.1182 22.8528C73.265 23.1871 72.355 23.354 71.4384 23.3442C70.5988 23.3453 69.7649 23.2074 68.9706 22.9361C68.1885 22.6737 67.4702 22.2506 66.8622 21.6941C66.2321 21.1063 65.7333 20.3925 65.3984 19.5995C65.0306 18.759 64.8463 17.7766 64.8457 16.6522C64.8451 15.5278 65.0352 14.5485 65.4162 13.7142C66.1015 12.1425 67.4181 10.9308 69.0438 10.3757C69.8309 10.0992 70.6593 9.95809 71.4937 9.95825C72.3159 9.95826 73.132 10.0995 73.9062 10.3757C74.6853 10.6496 75.4023 11.0749 76.0155 11.6271C76.6543 12.2103 77.1624 12.9215 77.5065 13.7142ZM74.4175 18.1703V18.1731C74.6161 17.6911 74.7119 17.1731 74.699 16.6522C74.7104 16.1322 74.6166 15.6152 74.4232 15.1322C74.2563 14.7258 74.009 14.3572 73.696 14.0484C73.4041 13.7639 73.0561 13.543 72.6741 13.3997C72.3004 13.2594 71.9044 13.1871 71.505 13.1863C71.0898 13.1853 70.6774 13.2543 70.2852 13.3904C69.8932 13.5257 69.5351 13.7438 69.2352 14.0296C68.9171 14.3365 68.6663 14.7059 68.4986 15.1144C68.3022 15.6029 68.2065 16.1259 68.2171 16.6522C68.2057 17.1722 68.2995 17.6891 68.493 18.1721C68.6595 18.579 68.9069 18.948 69.2202 19.2569C69.5161 19.5429 69.8673 19.7658 70.2523 19.9121C70.6373 20.0601 71.0464 20.1356 71.459 20.1348C71.8661 20.134 72.2696 20.0579 72.6488 19.9102C73.0338 19.7638 73.385 19.5409 73.681 19.255C73.9951 18.9449 74.2454 18.5764 74.4175 18.1703Z" fill="#1694F4"/>
<path d="M57.3261 15.7761V18.6776H60.1307C59.818 19.309 59.4345 19.7417 58.9804 19.9757C58.5262 20.2097 57.9613 20.3264 57.2857 20.3258C56.8163 20.332 56.3507 20.2405 55.9186 20.0572C55.5227 19.8878 55.17 19.6319 54.8864 19.3084C54.5954 18.9707 54.3724 18.5801 54.2296 18.1581C54.0669 17.6726 53.9876 17.1631 53.995 16.6512C53.9911 16.164 54.0639 15.6792 54.2109 15.2145C54.3452 14.7836 54.5591 14.3814 54.8414 14.0287C55.121 13.6844 55.4735 13.406 55.8736 13.2135C56.3132 13.0061 56.7948 12.9024 57.2811 12.9102C57.9204 12.9102 58.4568 13.0207 58.8903 13.2416C59.3238 13.4624 59.6879 13.8393 59.9825 14.3722H63.2319C63.2319 14.3722 62.7956 13.0076 62.3752 12.3955C61.9969 11.8537 61.5224 11.3855 60.9752 11.014C60.4393 10.6551 59.8482 10.3861 59.2253 10.2175C58.6042 10.0462 57.9629 9.95895 57.3186 9.95825C56.4926 9.95896 55.673 10.1034 54.8968 10.385C54.1129 10.6647 53.3906 11.0928 52.7696 11.6458C52.1213 12.2305 51.605 12.9461 51.2551 13.7451C50.8742 14.5856 50.684 15.5618 50.6846 16.6737C50.6853 17.7856 50.8754 18.759 51.2551 19.5939C51.6061 20.3872 52.1209 21.0977 52.7658 21.6792C53.3856 22.2316 54.1084 22.6568 54.893 22.9305C55.6706 23.206 56.4897 23.3468 57.3148 23.347C57.9137 23.3472 58.5103 23.2755 59.092 23.1336C59.6715 22.9933 60.227 22.7684 60.7407 22.4663C61.2654 22.1558 61.7326 21.7575 62.1219 21.2889C62.5465 20.772 62.8713 20.1811 63.0799 19.5461C63.2845 18.9377 63.4085 18.3053 63.4487 17.6649C63.4837 17.0355 63.4758 16.4044 63.4252 15.7761H57.3261ZM47.7328 16.1075C47.2382 15.8042 46.6932 15.5915 46.1236 15.4795C45.4878 15.3487 44.8448 15.2549 44.1981 15.1987C43.5838 15.1363 43.1078 15.0362 42.77 14.8983C42.4322 14.7604 42.262 14.4771 42.2595 14.0484C42.2501 13.839 42.3073 13.632 42.4228 13.4569C42.5287 13.3073 42.672 13.1879 42.8385 13.1106C43.0151 13.0296 43.2025 12.9744 43.3949 12.9468C43.5862 12.9179 43.7794 12.9029 43.9729 12.9019C44.3864 12.8939 44.7947 12.9943 45.1571 13.193C45.5055 13.3889 45.6857 13.7053 45.6976 14.142H48.8391C48.8658 13.5061 48.7272 12.8742 48.4365 12.3076C48.1635 11.7944 47.7811 11.3471 47.3162 10.9972C46.8408 10.6402 46.3036 10.3737 45.7313 10.211C45.1409 10.0414 44.5292 9.95631 43.9147 9.95833C43.2771 9.95519 42.6421 10.0418 42.0287 10.2157C41.4569 10.3747 40.9193 10.6374 40.4429 10.9907C39.9831 11.3376 39.6072 11.7832 39.3432 12.2945C39.0577 12.8632 38.9163 13.4931 38.9313 14.1289C38.9313 14.8053 39.0655 15.3737 39.3338 15.8342C39.5947 16.2865 39.9586 16.6712 40.396 16.9574C40.8565 17.2551 41.3641 17.4731 41.8973 17.6022C42.4618 17.7438 43.0382 17.8331 43.6192 17.869C43.8512 17.8815 44.1046 17.8999 44.3792 17.9242C44.6423 17.9464 44.901 18.0054 45.1477 18.0992C45.374 18.1837 45.5776 18.3192 45.7426 18.4951C45.9009 18.6667 45.98 18.906 45.98 19.213C45.9834 19.4 45.9221 19.5825 45.8064 19.7297C45.6826 19.8822 45.5303 20.0094 45.3579 20.104C45.1602 20.214 44.9474 20.2948 44.7264 20.3436C44.4954 20.3978 44.259 20.4255 44.0217 20.426C43.7692 20.4265 43.5174 20.3989 43.2711 20.3436C43.0406 20.2953 42.819 20.2116 42.6142 20.0956C42.433 19.9925 42.2767 19.851 42.1563 19.681C42.0387 19.5105 41.9776 19.3076 41.9818 19.1007H38.7596C38.7471 19.8326 38.8885 20.4647 39.1837 20.9969C39.4687 21.5223 39.8734 21.9737 40.3651 22.3147C40.882 22.6667 41.4573 22.9247 42.0644 23.0766C42.7158 23.245 43.3863 23.329 44.0592 23.3265C44.713 23.3277 45.3641 23.2433 45.9959 23.0757C46.601 22.921 47.1749 22.6636 47.6924 22.3147C48.1839 21.9816 48.5944 21.5428 48.8935 21.0306C49.2034 20.4841 49.3597 19.8642 49.3458 19.2364C49.3458 18.4433 49.2072 17.7988 48.9301 17.3027C48.6635 16.8143 48.2758 16.4022 47.8041 16.1057L47.7328 16.1075ZM33.8714 18.5774C33.8785 18.8198 33.8212 19.0597 33.7053 19.2728C33.6003 19.4588 33.4562 19.62 33.283 19.7455C33.1025 19.8744 32.9 19.9695 32.6853 20.0263C32.4669 20.0874 32.2413 20.1189 32.0144 20.1199C31.7751 20.1206 31.5368 20.0892 31.306 20.0263C31.0913 19.9696 30.8888 19.8745 30.7083 19.7455C30.5345 19.6218 30.3895 19.4622 30.2832 19.2775C30.1673 19.0644 30.11 18.8245 30.1171 18.5821V9.95825H26.8339V18.6551C26.8199 19.323 26.9676 19.9844 27.2646 20.5832C27.5426 21.1285 27.9407 21.604 28.4291 21.974C28.9309 22.3509 29.4958 22.6361 30.0974 22.8163C31.3709 23.1995 32.7293 23.1995 34.0027 22.8163C34.6019 22.6372 35.1639 22.3519 35.6617 21.974C36.6943 21.1864 37.2849 19.9521 37.2493 18.656V9.95825H33.8714V18.5774ZM21.4186 20.1158C19.8235 21.3803 19.3928 21.6779 17.8887 22.5212H25.9329C25.9329 22.5212 25.2442 20.143 24.2149 17.4119C23.3197 18.3909 22.8111 19.0133 21.4186 20.1158Z" fill="#1694F4"/>
<path d="M11.9258 22.9381C11.9258 22.9381 15.3216 9.95839 18.6564 9.95839C19.9494 9.95839 21.3653 12.2636 22.5692 14.932C20.1849 17.8709 15.8489 21.2197 13.0874 22.9381H11.9258Z" fill="#F46364"/>
<path d="M7.41269 14.6383H3.37761V9.95845H0V22.8741H3.37761V17.7271H7.41269V22.9682H10.791V9.95845H7.41269V14.6383Z" fill="#1694F4"/>
</g>
<defs>
<clipPath id="clip0_3506_1572">
<rect width="100" height="33.3333" fill="white"/>
</clipPath>
</defs>
</svg>
