<svg width="33" height="33" viewBox="0 0 33 33" fill="none" xmlns="http://www.w3.org/2000/svg">
<path d="M6.875 4.125H26.125C27.6375 4.125 28.875 5.34875 28.875 6.875V26.125C28.875 26.8538 28.5863 27.555 28.0637 28.0637C27.555 28.5863 26.8538 28.875 26.125 28.875H6.875C6.14625 28.875 5.445 28.5863 4.93625 28.0637C4.41375 27.555 4.125 26.8538 4.125 26.125V6.875C4.125 5.34875 5.34875 4.125 6.875 4.125ZM16.9125 10.0237C16.6512 10.3125 16.5 10.6425 16.5 11C16.5 11.3713 16.6512 11.6875 16.9125 11.9763C17.1875 12.2375 17.5175 12.375 17.875 12.375C18.2463 12.375 18.5625 12.2375 18.8512 11.9763C19.1125 11.6875 19.25 11.3713 19.25 11C19.25 10.6425 19.1125 10.3125 18.8512 10.0237C18.5625 9.77625 18.2463 9.625 17.875 9.625C17.5175 9.625 17.1875 9.77625 16.9125 10.0237ZM13.475 16.4588C13.3375 16.5825 13.3375 16.5963 13.4338 16.7338L13.5025 16.8438L13.5438 16.9263C13.64 17.105 13.6538 17.105 13.805 16.995C13.9838 16.8712 14.2863 16.6788 14.795 16.3762C16.06 15.565 15.8125 16.5 15.2488 18.5625C14.9462 19.7037 14.5612 21.1613 14.2725 22.8525C13.9425 25.2588 16.1012 24.0213 16.665 23.65C17.1875 23.32 18.48 22.4125 18.7825 22.2062L18.8375 22.1787C19.0025 22.055 18.9338 22 18.81 21.8075L18.7275 21.6975C18.6175 21.5462 18.5075 21.6562 18.5075 21.6562L18.2875 21.8075C17.6687 22.22 16.8162 22.8113 16.6788 22.3438C16.555 22 17.0638 20.13 17.5863 18.2188C17.82 17.38 18.0538 16.5 18.2325 15.7713L18.26 15.6887C18.3562 15.0837 18.5625 13.915 17.5588 13.9975C16.4588 14.0938 13.475 16.4588 13.475 16.4588Z" fill="#EC7B2F"/>
</svg>
