<svg width="33" height="33" viewBox="0 0 33 33" fill="none" xmlns="http://www.w3.org/2000/svg">
<mask id="mask0_4171_4131" style="mask-type:alpha" maskUnits="userSpaceOnUse" x="0" y="0" width="33" height="33">
<rect width="33" height="33" fill="#D9D9D9"/>
</mask>
<g mask="url(#mask0_4171_4131)">
<path d="M16.5 27.5C15.4 26.6292 14.2083 25.9531 12.925 25.4719C11.6417 24.9906 10.3125 24.75 8.9375 24.75C7.975 24.75 7.02969 24.876 6.10156 25.1281C5.17344 25.3802 4.28542 25.7354 3.4375 26.1938C2.95625 26.4458 2.49219 26.4344 2.04531 26.1594C1.59844 25.8844 1.375 25.4833 1.375 24.9562V8.3875C1.375 8.13542 1.43802 7.89479 1.56406 7.66563C1.6901 7.43646 1.87917 7.26458 2.13125 7.15C3.18542 6.6 4.28542 6.1875 5.43125 5.9125C6.57708 5.6375 7.74583 5.5 8.9375 5.5C10.2667 5.5 11.5672 5.67188 12.8391 6.01562C14.1109 6.35938 15.3313 6.875 16.5 7.5625V24.2C17.6688 23.4667 18.8948 22.9167 20.1781 22.55C21.4615 22.1833 22.7563 22 24.0625 22C24.8875 22 25.6953 22.0688 26.4859 22.2063C27.2766 22.3438 28.0729 22.55 28.875 22.825V6.325C29.2188 6.43958 29.5568 6.5599 29.8891 6.68594C30.2214 6.81198 30.5479 6.96667 30.8688 7.15C31.1208 7.26458 31.3099 7.43646 31.4359 7.66563C31.562 7.89479 31.625 8.13542 31.625 8.3875V24.9562C31.625 25.4833 31.4016 25.8844 30.9547 26.1594C30.5078 26.4344 30.0438 26.4458 29.5625 26.1938C28.7146 25.7354 27.8266 25.3802 26.8984 25.1281C25.9703 24.876 25.025 24.75 24.0625 24.75C22.6875 24.75 21.3583 24.9906 20.075 25.4719C18.7917 25.9531 17.6 26.6292 16.5 27.5ZM19.25 20.625V7.5625L26.125 0.6875V14.4375L19.25 20.625ZM13.75 22.8594V9.24687C12.9937 8.92604 12.2089 8.67969 11.3953 8.50781C10.5818 8.33594 9.7625 8.25 8.9375 8.25C8.08958 8.25 7.26458 8.33021 6.4625 8.49063C5.66042 8.65104 4.88125 8.89167 4.125 9.2125V22.8594C4.92708 22.5615 5.72344 22.3438 6.51406 22.2063C7.30469 22.0688 8.1125 22 8.9375 22C9.7625 22 10.5703 22.0688 11.3609 22.2063C12.1516 22.3438 12.9479 22.5615 13.75 22.8594Z" fill="#EC7B2F"/>
</g>
</svg>
