<svg width="35" height="30" viewBox="0 0 35 30" fill="none" xmlns="http://www.w3.org/2000/svg">
<path fill-rule="evenodd" clip-rule="evenodd" d="M18.651 5.09417C13.3401 6.60241 9.44463 11.5026 9.44463 17.3077C9.44463 24.3126 15.1169 30 22.1034 30C29.0898 30 34.7621 24.3127 34.7621 17.3077C34.7621 11.5027 30.8666 6.60274 25.5557 5.09417V3.45922C25.5557 2.54181 25.192 1.66147 24.5455 1.01294C23.8987 0.36468 23.0206 0 22.1057 0H22.1034C20.1966 0 18.651 1.54971 18.651 3.46152L18.651 5.09417ZM5.99225 27.6923H9.44463C10.0799 27.6923 10.5954 27.1754 10.5954 26.5385C10.5954 25.9015 10.0799 25.3846 9.44463 25.3846H5.99225C5.357 25.3846 4.84146 25.9015 4.84146 26.5385C4.84146 27.1754 5.357 27.6923 5.99225 27.6923ZM22.1034 6.92318C27.8193 6.92318 32.4605 11.5767 32.4605 17.3077C32.4605 23.0388 27.8193 27.6923 22.1034 27.6923C16.3874 27.6923 11.7462 23.0388 11.7462 17.3077C11.7462 11.5767 16.3874 6.92318 22.1034 6.92318ZM3.69066 23.077H7.14304C7.7783 23.077 8.29384 22.56 8.29384 21.9231C8.29384 21.2862 7.7783 20.7693 7.14304 20.7693H3.69066C3.05541 20.7693 2.53987 21.2862 2.53987 21.9231C2.53987 22.56 3.05541 23.077 3.69066 23.077ZM20.9526 10.3847V17.3077C20.9526 17.6135 21.0733 17.9078 21.2898 18.1234L25.893 22.7388C26.3418 23.189 27.0713 23.189 27.52 22.7388C27.9691 22.2888 27.9691 21.5574 27.52 21.1074L23.2542 16.83V10.3847C23.2542 9.74777 22.7386 9.23086 22.1034 9.23086C21.4681 9.23086 20.9526 9.74777 20.9526 10.3847H20.9526ZM1.38908 18.4616H5.99225C6.6275 18.4616 7.14304 17.9447 7.14304 17.3077C7.14304 16.6708 6.6275 16.1539 5.99225 16.1539H1.38908C0.753824 16.1539 0.238281 16.6708 0.238281 17.3077C0.238281 17.9447 0.753824 18.4616 1.38908 18.4616ZM3.69066 13.8462H7.14304C7.7783 13.8462 8.29384 13.3293 8.29384 12.6924C8.29384 12.0554 7.7783 11.5385 7.14304 11.5385H3.69066C3.05541 11.5385 2.53987 12.0554 2.53987 12.6924C2.53987 13.3293 3.05541 13.8462 3.69066 13.8462ZM5.99225 9.23086H9.44463C10.0799 9.23086 10.5954 8.71395 10.5954 8.07702C10.5954 7.44009 10.0799 6.92318 9.44463 6.92318H5.99225C5.357 6.92318 4.84146 7.44009 4.84146 8.07702C4.84146 8.71395 5.357 9.23086 5.99225 9.23086ZM23.2542 4.66752V3.45935C23.2542 3.15363 23.1334 2.86054 22.9182 2.64474C22.7029 2.42893 22.4106 2.30785 22.1057 2.30785H22.1034C21.4681 2.30785 20.9526 2.82476 20.9526 3.46169V4.66756C21.3323 4.63279 21.7155 4.61553 22.1034 4.61553C22.4912 4.61553 22.8746 4.63279 23.2542 4.66756L23.2542 4.66752Z" fill="white"/>
</svg>
