<svg width="150" height="29" viewBox="0 0 150 29" fill="none" xmlns="http://www.w3.org/2000/svg">
<path d="M36.249 1.4181H38.8967C39.6892 1.4181 40.3809 1.58381 40.9717 1.91522C41.5696 2.23943 42.0307 2.70773 42.3549 3.32013C42.6792 3.92532 42.8413 4.63137 42.8413 5.43829C42.8413 6.24521 42.6792 6.95486 42.3549 7.56726C42.0307 8.17245 41.5696 8.64075 40.9717 8.97216C40.3737 9.30357 39.682 9.46928 38.8967 9.46928H36.249V1.4181ZM38.8967 8.65876C39.5091 8.65876 40.0423 8.52908 40.4962 8.26971C40.9573 8.00314 41.3103 7.6285 41.5552 7.14579C41.8074 6.66308 41.9335 6.09391 41.9335 5.43829C41.9335 4.78987 41.8074 4.22431 41.5552 3.7416C41.3103 3.25889 40.9573 2.88785 40.4962 2.62848C40.0351 2.36191 39.5019 2.22863 38.8967 2.22863H37.1136V8.65876H38.8967Z" fill="#16122E"/>
<path d="M46.7878 9.59896C46.2547 9.59896 45.7684 9.46928 45.3289 9.20991C44.8894 8.94334 44.5436 8.57951 44.2914 8.11841C44.0393 7.65011 43.9132 7.12778 43.9132 6.55141C43.9132 5.98224 44.0321 5.47071 44.2698 5.01682C44.5148 4.55572 44.8498 4.19549 45.2748 3.93612C45.6999 3.67676 46.1754 3.54707 46.7014 3.54707C47.2345 3.54707 47.7028 3.67676 48.1063 3.93612C48.5097 4.19549 48.8195 4.53771 49.0357 4.96278C49.259 5.38786 49.3707 5.83454 49.3707 6.30285C49.3707 6.48296 49.3563 6.65587 49.3275 6.82158H44.7669C44.7741 7.22504 44.8714 7.58167 45.0587 7.89147C45.2532 8.19406 45.5018 8.42821 45.8044 8.59392C46.1142 8.75962 46.442 8.84248 46.7878 8.84248C47.5443 8.84248 48.1351 8.48945 48.5602 7.7834L49.2518 8.15083C49.0645 8.5615 48.7475 8.90732 48.3008 9.1883C47.8613 9.46208 47.357 9.59896 46.7878 9.59896ZM48.4953 6.06509C48.4953 5.73368 48.4125 5.43469 48.2468 5.16812C48.0883 4.89434 47.8721 4.6818 47.5983 4.53051C47.3246 4.37921 47.0256 4.30356 46.7014 4.30356C46.3844 4.30356 46.0854 4.37561 45.8044 4.5197C45.5306 4.66379 45.3001 4.86912 45.1127 5.13569C44.9326 5.40227 44.8246 5.71207 44.7885 6.06509H48.4953Z" fill="#16122E"/>
<path d="M52.8531 9.59896C52.4496 9.59896 52.0822 9.5053 51.7507 9.31798C51.4193 9.12346 51.1564 8.85328 50.9618 8.50746C50.7745 8.16164 50.6809 7.76899 50.6809 7.32951V3.67676H51.4914V7.23224C51.4914 7.70054 51.6283 8.07879 51.902 8.36697C52.183 8.64795 52.5469 8.78844 52.9935 8.78844C53.4474 8.78844 53.8149 8.64075 54.0958 8.34536C54.3768 8.04276 54.5173 7.6357 54.5173 7.12417V3.67676H55.3278V9.46928H54.5173V8.75602C54.3444 9.02259 54.1103 9.23153 53.8149 9.38282C53.5267 9.52692 53.2061 9.59896 52.8531 9.59896Z" fill="#16122E"/>
<path d="M59.2102 9.53412C58.6914 9.53412 58.2916 9.38283 58.0106 9.08023C57.7296 8.77764 57.5891 8.34536 57.5891 7.7834V4.48728H56.5192V3.67676H56.7894C57.0272 3.67676 57.2181 3.59751 57.3622 3.439C57.5135 3.2805 57.5891 3.07517 57.5891 2.82301V2.3367H58.3996V3.67676H59.6749V4.48728H58.3996V7.7834C58.3996 8.1004 58.4717 8.34536 58.6158 8.51827C58.7599 8.69118 59.0048 8.77764 59.3506 8.77764C59.5091 8.77764 59.646 8.76683 59.7613 8.74522V9.48009C59.6172 9.51611 59.4335 9.53412 59.2102 9.53412Z" fill="#16122E"/>
<path d="M63.2162 9.59896C62.6687 9.59896 62.186 9.46568 61.7681 9.19911C61.3502 8.92533 61.044 8.55069 60.8495 8.07518L61.5304 7.72936C61.7033 8.08239 61.9374 8.35977 62.2328 8.5615C62.5354 8.76323 62.8632 8.86409 63.2162 8.86409C63.5693 8.86409 63.8611 8.78124 64.0916 8.61553C64.3294 8.44262 64.4482 8.21928 64.4482 7.9455C64.4482 7.67173 64.3402 7.45198 64.124 7.28628C63.9079 7.12057 63.6881 7.02691 63.4648 7.0053L62.6327 6.90803C62.1067 6.77115 61.7177 6.55501 61.4655 6.25962C61.2134 5.95702 61.0873 5.6112 61.0873 5.22215C61.0873 4.89074 61.1737 4.59895 61.3466 4.34679C61.5196 4.08742 61.7537 3.88929 62.0491 3.75241C62.3517 3.61552 62.6867 3.54707 63.0541 3.54707C63.5368 3.54707 63.9727 3.67315 64.3618 3.92532C64.758 4.17748 65.039 4.5197 65.2047 4.95198L64.5239 5.2978C64.3726 4.9808 64.16 4.73224 63.8863 4.55212C63.6197 4.372 63.3279 4.28195 63.0109 4.28195C62.6867 4.28195 62.4237 4.3648 62.222 4.53051C62.0275 4.68901 61.9302 4.89794 61.9302 5.15731C61.9302 5.43108 62.0239 5.64722 62.2112 5.80573C62.4057 5.96423 62.6002 6.05429 62.7948 6.0759L63.7566 6.18397C64.2321 6.31365 64.6031 6.537 64.8697 6.854C65.1435 7.171 65.2804 7.53124 65.2804 7.93469C65.2804 8.2517 65.1939 8.53628 65.021 8.78844C64.8481 9.04061 64.6031 9.23873 64.2861 9.38282C63.9763 9.52692 63.6197 9.59896 63.2162 9.59896Z" fill="#16122E"/>
<path d="M69.3307 9.59896C68.7615 9.59896 68.2536 9.46928 67.8069 9.20991C67.3674 8.94334 67.0252 8.57951 66.7803 8.11841C66.5353 7.65732 66.4128 7.13858 66.4128 6.56221C66.4128 5.99305 66.5353 5.47791 66.7803 5.01682C67.0252 4.55572 67.3674 4.19549 67.8069 3.93612C68.2536 3.67676 68.7615 3.54707 69.3307 3.54707C69.8638 3.54707 70.3573 3.68756 70.8112 3.96854C71.2651 4.24232 71.5857 4.59535 71.7731 5.02763L71.0382 5.40587C70.8869 5.08887 70.6563 4.8367 70.3465 4.64938C70.0439 4.45486 69.7053 4.35759 69.3307 4.35759C68.9561 4.35759 68.6102 4.45486 68.2932 4.64938C67.9834 4.8367 67.7349 5.09967 67.5475 5.43829C67.3674 5.77691 67.2774 6.15515 67.2774 6.57302C67.2774 6.98368 67.3674 7.35832 67.5475 7.69694C67.7349 8.03556 67.9834 8.30213 68.2932 8.49666C68.6102 8.69118 68.9561 8.78844 69.3307 8.78844C69.7125 8.78844 70.0548 8.69478 70.3574 8.50746C70.6599 8.31294 70.8869 8.04997 71.0382 7.71856L71.7731 8.11841C71.5785 8.54349 71.2543 8.89651 70.8004 9.17749C70.3465 9.45847 69.8566 9.59896 69.3307 9.59896Z" fill="#16122E"/>
<path d="M73.1629 1.28842H73.9735V4.39002C74.1464 4.12344 74.3769 3.91811 74.6651 3.77402C74.9605 3.62272 75.2847 3.54707 75.6377 3.54707C76.0412 3.54707 76.4086 3.64073 76.74 3.82805C77.0714 4.01537 77.3308 4.27474 77.5181 4.60615C77.7127 4.93757 77.8099 5.305 77.8099 5.70846V9.46928H76.9994V6.02187C76.9994 5.51034 76.8589 5.10688 76.5779 4.81149C76.2969 4.50889 75.9367 4.35759 75.4972 4.35759C75.0578 4.35759 74.6939 4.50889 74.4057 4.81149C74.1175 5.11408 73.9735 5.51754 73.9735 6.02187V9.46928H73.1629V1.28842Z" fill="#16122E"/>
<path d="M81.9948 9.59896C81.4617 9.59896 80.9754 9.46928 80.5359 9.20991C80.0964 8.94334 79.7506 8.57951 79.4984 8.11841C79.2463 7.65011 79.1202 7.12778 79.1202 6.55141C79.1202 5.98224 79.2391 5.47071 79.4768 5.01682C79.7218 4.55572 80.0568 4.19549 80.4819 3.93612C80.9069 3.67676 81.3824 3.54707 81.9084 3.54707C82.4415 3.54707 82.9098 3.67676 83.3133 3.93612C83.7167 4.19549 84.0265 4.53771 84.2427 4.96278C84.466 5.38786 84.5777 5.83454 84.5777 6.30285C84.5777 6.48296 84.5633 6.65587 84.5345 6.82158H79.9739C79.9811 7.22504 80.0784 7.58167 80.2657 7.89147C80.4602 8.19406 80.7088 8.42821 81.0114 8.59392C81.3212 8.75962 81.649 8.84248 81.9948 8.84248C82.7513 8.84248 83.3421 8.48945 83.7672 7.7834L84.4588 8.15083C84.2715 8.5615 83.9545 8.90732 83.5078 9.1883C83.0683 9.46208 82.564 9.59896 81.9948 9.59896ZM83.7023 6.06509C83.7023 5.73368 83.6195 5.43469 83.4538 5.16812C83.2953 4.89434 83.0791 4.6818 82.8053 4.53051C82.5316 4.37921 82.2326 4.30356 81.9084 4.30356C81.5914 4.30356 81.2924 4.37561 81.0114 4.5197C80.7376 4.66379 80.5071 4.86912 80.3198 5.13569C80.1396 5.40227 80.0316 5.71207 79.9955 6.06509H83.7023Z" fill="#16122E"/>
<path d="M43.1523 28.9897C41.8431 28.9897 40.6512 28.6809 39.5767 28.0634C38.5022 27.4459 37.6562 26.5937 37.0386 25.5068C36.4211 24.4199 36.1123 23.2034 36.1123 21.8571C36.1123 20.5109 36.4149 19.2943 37.0201 18.2075C37.6253 17.1206 38.4528 16.2746 39.5026 15.6694C40.5648 15.0518 41.7566 14.7431 43.0782 14.7431C44.0415 14.7431 44.9246 14.9098 45.7274 15.2433C46.5426 15.5644 47.228 16.0029 47.7838 16.5586C48.3396 17.1144 48.741 17.7381 48.988 18.4298L46.4499 19.6525C46.2029 18.9609 45.783 18.4051 45.1901 17.9852C44.5973 17.5529 43.8933 17.3367 43.0782 17.3367C42.2754 17.3367 41.559 17.5282 40.9291 17.9111C40.3116 18.2816 39.8299 18.8127 39.4841 19.5043C39.1506 20.1836 38.9839 20.9679 38.9839 21.8571C38.9839 22.7464 39.1568 23.5368 39.5026 24.2285C39.8608 24.9078 40.3548 25.4389 40.9847 25.8217C41.6269 26.2046 42.3495 26.396 43.1523 26.396C43.7945 26.396 44.3873 26.2725 44.9308 26.0255C45.4866 25.7785 45.9312 25.4265 46.2647 24.9695C46.5981 24.5002 46.7649 23.9568 46.7649 23.3392V23.3022H43.0782V20.8938H49.6364V22.3573C49.6364 23.79 49.3277 25.0066 48.7101 26.007C48.0926 27.0074 47.2898 27.7546 46.3017 28.2487C45.3136 28.7427 44.2638 28.9897 43.1523 28.9897Z" fill="#5035F8"/>
<path d="M51.2058 18.6521H53.7995V20.1712C54.0465 19.5784 54.3985 19.1585 54.8555 18.9115C55.3124 18.6645 55.8744 18.5409 56.5413 18.5409H57.1342V20.9493H56.2634C55.5718 20.9493 55.016 21.1593 54.5961 21.5792C54.1885 21.9992 53.9847 22.5797 53.9847 23.3207V28.7674H51.2058V18.6521Z" fill="#5035F8"/>
<path d="M61.9833 28.9897C60.7729 28.9897 59.8281 28.613 59.1488 27.8596C58.4818 27.0939 58.1483 26.0688 58.1483 24.7843V18.6521H60.9273V24.562C60.9273 25.1424 61.094 25.6118 61.4275 25.9699C61.7733 26.3158 62.2241 26.4887 62.7799 26.4887C63.3357 26.4887 63.7803 26.3158 64.1138 25.9699C64.4596 25.6118 64.6325 25.1424 64.6325 24.562V18.6521H67.4114V28.7674H64.8178V27.5447C64.5584 28.0264 64.1817 28.3907 63.6877 28.6377C63.206 28.8724 62.6379 28.9897 61.9833 28.9897Z" fill="#5035F8"/>
<path d="M69.4425 18.6521H72.0362V19.8748C72.2956 19.3931 72.6661 19.035 73.1478 18.8003C73.6418 18.5533 74.2161 18.4298 74.8707 18.4298C75.6241 18.4298 76.291 18.5903 76.8715 18.9115C77.452 19.2326 77.9028 19.6834 78.2239 20.2639C78.5451 20.8444 78.7056 21.5113 78.7056 22.2647V28.7674H75.9267V22.8575C75.9267 22.2771 75.7538 21.8139 75.408 21.4681C75.0745 21.1099 74.6299 20.9308 74.0741 20.9308C73.5183 20.9308 73.0675 21.1099 72.7217 21.4681C72.3882 21.8139 72.2215 22.2771 72.2215 22.8575V28.7674H69.4425V18.6521Z" fill="#5035F8"/>
<path d="M85.2941 28.9897C84.3184 28.9897 83.4353 28.7551 82.6449 28.2857C81.8668 27.8164 81.2493 27.1803 80.7923 26.3775C80.3476 25.5747 80.1253 24.6855 80.1253 23.7098C80.1253 22.734 80.3538 21.8448 80.8108 21.042C81.2678 20.2392 81.8853 19.6031 82.6634 19.1338C83.4539 18.6644 84.3246 18.4298 85.2756 18.4298C85.8685 18.4298 86.4119 18.5224 86.9059 18.7077C87.4123 18.8929 87.8384 19.1585 88.1842 19.5043V14.7431H90.9632V28.7674H88.3695V27.804C88.0113 28.1869 87.5667 28.4833 87.0356 28.6933C86.5045 28.8909 85.924 28.9897 85.2941 28.9897ZM82.9969 23.7098C82.9969 24.5249 83.2439 25.1918 83.7379 25.7106C84.232 26.2293 84.8619 26.4887 85.6276 26.4887C86.381 26.4887 86.9924 26.2355 87.4617 25.7291C87.9434 25.2104 88.1842 24.5373 88.1842 23.7098C88.1842 22.8946 87.9434 22.2277 87.4617 21.7089C86.9924 21.1902 86.381 20.9308 85.6276 20.9308C84.8619 20.9308 84.232 21.1964 83.7379 21.7274C83.2439 22.2462 82.9969 22.9069 82.9969 23.7098Z" fill="#5035F8"/>
<path d="M96.9258 28.9712C95.8637 28.9712 94.9312 28.7303 94.1284 28.2487C93.3379 27.7546 92.7883 27.0815 92.4796 26.2293L94.4804 25.1918C94.7521 25.7106 95.1041 26.1182 95.5364 26.4146C95.9687 26.6986 96.4503 26.8407 96.9814 26.8407C97.389 26.8407 97.7039 26.7604 97.9263 26.5998C98.1486 26.4393 98.2597 26.217 98.2597 25.9329C98.2597 25.7106 98.1733 25.5191 98.0004 25.3586C97.8275 25.198 97.5681 25.0869 97.2223 25.0251L95.4993 24.6916C94.6595 24.494 93.9987 24.1235 93.517 23.5801C93.0477 23.0243 92.813 22.3697 92.813 21.6163C92.813 20.9864 92.9736 20.4306 93.2947 19.9489C93.6282 19.4673 94.0913 19.0967 94.6842 18.8374C95.2894 18.5656 95.981 18.4298 96.7591 18.4298C97.6978 18.4298 98.5253 18.6521 99.2416 19.0967C99.958 19.529 100.483 20.1404 100.816 20.9308L98.797 21.9683C98.6364 21.5731 98.3647 21.2581 97.9818 21.0235C97.599 20.7764 97.1729 20.6529 96.7035 20.6529C96.3207 20.6529 96.0242 20.727 95.8143 20.8752C95.6043 21.0235 95.4993 21.2272 95.4993 21.4866C95.4993 21.6966 95.5858 21.8818 95.7587 22.0424C95.944 22.1906 96.2342 22.3141 96.6294 22.4129L98.2412 22.7464C99.1058 22.9811 99.7727 23.3639 100.242 23.895C100.711 24.4137 100.946 25.0436 100.946 25.7847C100.946 26.4146 100.779 26.9704 100.446 27.452C100.112 27.9337 99.643 28.3104 99.0378 28.5821C98.4326 28.8415 97.7286 28.9712 96.9258 28.9712Z" fill="#5035F8"/>
<path d="M107.405 28.8786C106.182 28.8786 105.231 28.5513 104.552 27.8967C103.885 27.2297 103.552 26.3034 103.552 25.1177V21.0605H101.847V18.6521H101.94C102.459 18.6521 102.854 18.5224 103.126 18.263C103.41 18.0037 103.552 17.6146 103.552 17.0959V16.3549H106.331V18.6521H108.702V21.0605H106.331V24.9325C106.331 25.4512 106.473 25.8403 106.757 26.0996C107.041 26.3466 107.473 26.4702 108.054 26.4702C108.226 26.4702 108.443 26.4516 108.702 26.4146V28.7859C108.294 28.8477 107.862 28.8786 107.405 28.8786Z" fill="#5035F8"/>
<path d="M115.203 28.9897C114.165 28.9897 113.245 28.7551 112.442 28.2857C111.64 27.8164 111.016 27.1803 110.571 26.3775C110.139 25.5624 109.923 24.6669 109.923 23.6912C109.923 22.7032 110.145 21.8077 110.59 21.0049C111.034 20.2021 111.646 19.5722 112.424 19.1153C113.202 18.6583 114.067 18.4298 115.018 18.4298C116.055 18.4298 116.95 18.6459 117.704 19.0782C118.457 19.5105 119.032 20.1095 119.427 20.8752C119.822 21.6286 120.02 22.4747 120.02 23.4133C120.02 23.8703 119.976 24.2285 119.89 24.4879H112.813C112.899 25.1301 113.153 25.6427 113.572 26.0255C114.005 26.3961 114.561 26.5813 115.24 26.5813C115.722 26.5813 116.141 26.4825 116.5 26.2849C116.858 26.0873 117.136 25.8156 117.333 25.4697L119.556 26.5257C119.248 27.2668 118.698 27.8658 117.908 28.3228C117.13 28.7674 116.228 28.9897 115.203 28.9897ZM117.074 22.45C117.012 21.9065 116.796 21.4743 116.426 21.1531C116.055 20.8197 115.586 20.6529 115.018 20.6529C114.462 20.6529 113.992 20.8073 113.61 21.1161C113.239 21.4249 112.992 21.8695 112.868 22.45H117.074Z" fill="#5035F8"/>
<path d="M125.287 28.9897C124.077 28.9897 123.132 28.613 122.453 27.8596C121.786 27.0939 121.452 26.0688 121.452 24.7843V18.6521H124.231V24.562C124.231 25.1424 124.398 25.6118 124.731 25.9699C125.077 26.3158 125.528 26.4887 126.084 26.4887C126.64 26.4887 127.084 26.3158 127.418 25.9699C127.763 25.6118 127.936 25.1424 127.936 24.562V18.6521H130.715V28.7674H128.122V27.5447C127.862 28.0264 127.486 28.3907 126.992 28.6377C126.51 28.8724 125.942 28.9897 125.287 28.9897Z" fill="#5035F8"/>
<path d="M137.619 28.9897C136.581 28.9897 135.661 28.7551 134.858 28.2857C134.056 27.8164 133.432 27.1803 132.987 26.3775C132.555 25.5624 132.339 24.6669 132.339 23.6912C132.339 22.7032 132.561 21.8077 133.006 21.0049C133.45 20.2021 134.062 19.5722 134.84 19.1153C135.618 18.6583 136.482 18.4298 137.434 18.4298C138.471 18.4298 139.366 18.6459 140.12 19.0782C140.873 19.5105 141.448 20.1095 141.843 20.8752C142.238 21.6286 142.436 22.4747 142.436 23.4133C142.436 23.8703 142.392 24.2285 142.306 24.4879H135.229C135.315 25.1301 135.569 25.6427 135.988 26.0255C136.421 26.3961 136.977 26.5813 137.656 26.5813C138.138 26.5813 138.557 26.4825 138.916 26.2849C139.274 26.0873 139.552 25.8156 139.749 25.4697L141.972 26.5257C141.664 27.2668 141.114 27.8658 140.324 28.3228C139.546 28.7674 138.644 28.9897 137.619 28.9897ZM139.49 22.45C139.428 21.9065 139.212 21.4743 138.842 21.1531C138.471 20.8197 138.002 20.6529 137.434 20.6529C136.878 20.6529 136.408 20.8073 136.026 21.1161C135.655 21.4249 135.408 21.8695 135.284 22.45H139.49Z" fill="#5035F8"/>
<path d="M144.072 18.6521H146.666V20.1712C146.913 19.5784 147.265 19.1585 147.722 18.9115C148.179 18.6645 148.741 18.5409 149.408 18.5409H150V20.9493H149.13C148.438 20.9493 147.882 21.1593 147.462 21.5792C147.055 21.9992 146.851 22.5797 146.851 23.3207V28.7674H144.072V18.6521Z" fill="#5035F8"/>
<path fill-rule="evenodd" clip-rule="evenodd" d="M15.3669 13.8506H26.6643V28.9897H0V15.7833H5.15373V23.836H21.5105V19.0044H15.3669V13.8506Z" fill="#5035F8"/>
<path fill-rule="evenodd" clip-rule="evenodd" d="M0 0H13.8372L26.6794 5.15038V11.2098H21.5257V8.63623L12.8422 5.15373H5.15373V13.2064H0V0Z" fill="#16122E"/>
</svg>
