<svg width="75" height="50" viewBox="0 0 75 50" fill="none" xmlns="http://www.w3.org/2000/svg">
<path d="M68.387 0H5.69745C4.1866 0.00211154 2.73859 0.60284 1.67072 1.67072C0.602286 2.73863 0.00148653 4.18714 0 5.69745V44.3026C0.00158369 45.8129 0.602313 47.2614 1.67072 48.3293C2.73863 49.3972 4.1866 49.998 5.69745 50H68.3897C69.9 49.9974 71.3469 49.3961 72.4142 48.3282C73.4816 47.2603 74.0824 45.8123 74.0839 44.3026V5.69745C74.0823 4.18714 73.4816 2.73859 72.4132 1.67072C71.3453 0.602813 69.8973 0.00202708 68.3864 0H68.387ZM2.89332 44.3026V5.69745C2.89438 5.54173 2.9081 5.386 2.93502 5.23238L23.4572 23.8667C22.6796 26.5567 22.7182 29.4168 23.5681 32.0847L3.14048 45.4477C2.97789 45.0876 2.89343 44.697 2.89343 44.3021L2.89332 44.3026ZM24.7466 34.7722C26.2268 37.3794 28.4973 39.4497 31.2302 40.6829C33.9631 41.9165 37.0174 42.2491 39.9519 41.6341C40.7189 41.4562 41.2035 40.6976 41.042 39.9269C40.8804 39.1562 40.1324 38.6558 39.358 38.8009C35.4728 39.607 31.4502 38.3052 28.7739 35.3754C26.0975 32.4456 25.1637 28.3224 26.3166 24.5253C27.4695 20.7287 30.538 17.8206 34.3917 16.8736C38.2453 15.9266 42.3125 17.081 45.094 19.9111C47.1744 21.9963 48.3262 24.8326 48.2882 27.7777C48.2508 30.8938 47.1364 32.5006 46.476 33.181C45.6837 33.9138 44.5719 34.1909 43.5284 33.9169L44.4453 20.734C44.5008 19.9369 43.8995 19.2453 43.1024 19.1899C42.3053 19.1345 41.6137 19.7363 41.5583 20.5334V20.5645C39.5703 19.3213 37.143 18.9962 34.898 19.6713C32.6529 20.3465 30.8079 21.9571 29.835 24.0902C28.8626 26.2234 28.8568 28.6722 29.8192 30.8103C30.782 32.9482 32.6197 34.5673 34.8615 35.253C36.8163 35.8252 38.9051 35.7339 40.8023 34.9932C41.0884 35.7011 41.6474 36.2639 42.3528 36.5553C43.4096 36.938 44.5529 37.014 45.651 36.7744C46.749 36.5347 47.7567 35.9894 48.5581 35.2012C48.7418 35.0107 48.9154 34.8106 49.0786 34.6021L68.1966 47.1088H5.89361L24.7466 34.7722ZM35.7008 32.488C34.1113 32.0019 32.846 30.7919 32.2902 29.2251C31.7338 27.6589 31.9523 25.9222 32.8788 24.5423C33.8058 23.1624 35.3313 22.303 36.9916 22.2253C38.6518 22.1483 40.2508 22.8614 41.3019 24.1489L40.7787 31.6818C39.3006 32.718 37.4277 33.0152 35.701 32.4879L35.7008 32.488ZM50.4593 32.0509C50.9339 30.6885 51.1773 29.2568 51.1804 27.8141C51.1989 26.4231 51.0073 25.0368 50.6119 23.7029L71.0395 4.79832C71.1392 5.08813 71.1899 5.39166 71.1904 5.69783V44.3029C71.1904 44.6978 71.106 45.0884 70.9434 45.4484L50.4593 32.0509ZM68.3828 2.89475V2.89423C68.5211 2.89581 68.6589 2.9069 68.7956 2.92854L49.4113 20.8682C47.7479 17.9184 45.0837 15.6623 41.9005 14.5067C38.7174 13.3517 35.2259 13.3738 32.0581 14.57C28.8903 15.7662 26.2555 18.0568 24.6302 21.0271L4.82022 3.03608C5.10318 2.94211 5.39878 2.89354 5.69652 2.89354L68.3828 2.89475Z" fill="#333333"/>
</svg>
