<svg width="46" height="50" viewBox="0 0 46 50" fill="none" xmlns="http://www.w3.org/2000/svg">
<path d="M6.45908 19.0005H29.708C30.4213 19.0005 30.9974 18.4243 30.9974 17.7082C30.9974 16.9943 30.4213 16.416 29.708 16.416H6.45908C5.74519 16.416 5.16797 16.9949 5.16797 17.7082C5.16797 18.4249 5.74519 19.0005 6.45908 19.0005Z" fill="#333333"/>
<path d="M6.45908 26.7524H29.708C30.4213 26.7524 30.9974 26.1735 30.9974 25.4602C30.9974 24.7463 30.4213 24.168 29.708 24.168H6.45908C5.74519 24.168 5.16797 24.7463 5.16797 25.4602C5.16797 26.1735 5.74519 26.7524 6.45908 26.7524Z" fill="#333333"/>
<path d="M6.45908 34.5005H29.708C30.4213 34.5005 30.9974 33.9243 30.9974 33.2082C30.9974 32.4943 30.4213 31.916 29.708 31.916H6.45908C5.74519 31.916 5.16797 32.4943 5.16797 33.2082C5.16797 33.9238 5.74519 34.5005 6.45908 34.5005Z" fill="#333333"/>
<path d="M36.1628 11.2513C36.1628 9.82408 35.0083 8.66797 33.5811 8.66797H2.58333C1.15833 8.66797 0 9.82408 0 11.2513V47.4146C0 48.8419 1.15833 49.9991 2.58333 49.9991H25.8328L36.1633 39.6657V11.2513H36.1628ZM25.8328 46.3458V39.6657H32.5111L25.8328 46.3458ZM33.5811 37.0813H25.8328C24.4028 37.0813 23.2483 38.2391 23.2483 39.6657V47.4141H2.58333V11.2513H33.5811V37.0813Z" fill="#333333"/>
<path d="M38.1771 4.33398H26.3132H19.0443H7.18099C5.75599 4.33398 4.59766 5.4901 4.59766 6.91732V7.8801H7.18099V6.91732H19.0443H26.3132H38.1771V43.0807H33.8621L31.2793 45.6651H38.1777C39.6015 45.6651 40.7621 44.5079 40.7621 43.0807V6.91732C40.7621 5.4901 39.6015 4.33398 38.1771 4.33398Z" fill="#333333"/>
<path d="M42.7753 0H30.9114H23.642H11.7792C10.3531 0 9.19531 1.15611 9.19531 2.58333V3.54667H11.7792V2.58333H23.6425H30.912H42.7753V38.7467H41.5503V41.3311H42.7753C44.2009 41.3311 45.3581 40.1739 45.3581 38.7467V2.58333C45.3581 1.15611 44.2009 0 42.7753 0Z" fill="#333333"/>
</svg>
