<svg width="49" height="50" viewBox="0 0 49 50" fill="none" xmlns="http://www.w3.org/2000/svg">
<path d="M40.2975 15.5601H23.6528V9.80069C23.6528 4.39629 19.2557 0 13.8517 0H9.80112C4.39629 0 0 4.39619 0 9.80069V18.0402H4.02333V9.80069C4.02333 6.61447 6.61447 4.02333 9.80069 4.02333H13.8512C17.0383 4.02333 19.6299 6.61447 19.6299 9.80069V16.1158C16.4512 17.3245 14.1819 20.3945 14.1819 23.9921V41.57C14.1823 46.2177 17.9646 50 22.6127 50H40.2988C44.9475 50 48.7297 46.2173 48.7297 41.5691V23.9923C48.7297 19.3437 44.947 15.5607 40.2977 15.5607L40.2975 15.5601ZM44.707 41.569C44.707 43.9999 42.7295 45.977 40.2991 45.977H22.613C20.1821 45.977 18.205 43.9995 18.205 41.569V23.9911C18.205 21.56 20.1825 19.5824 22.613 19.5824H40.2969C42.7281 19.5824 44.7061 21.56 44.7061 23.9911L44.707 41.569Z" fill="#333333"/>
<path d="M31.4582 29.7891C29.8532 29.7891 28.5469 31.0949 28.5469 32.6995C28.5469 33.9852 29.3986 35.0981 30.5964 35.4694V37.4536H32.3208V35.4698C33.5182 35.0986 34.3703 33.9853 34.3703 32.6999C34.3699 31.0949 33.0637 29.7891 31.4582 29.7891Z" fill="#333333"/>
</svg>
