<svg width="51" height="34" viewBox="0 0 51 34" fill="none" xmlns="http://www.w3.org/2000/svg">
<path d="M8.93037 24.621L7.76116 23.6813L8.93037 24.621ZM1.50881 32.1623C1.59845 32.9859 2.33875 33.5808 3.16231 33.4912L16.583 32.0304C17.4066 31.9408 18.0016 31.2005 17.9119 30.3769C17.8223 29.5533 17.082 28.9584 16.2584 29.048L4.32888 30.3465L3.0304 18.417C2.94076 17.5934 2.20046 16.9984 1.3769 17.0881C0.553333 17.1777 -0.0416298 17.918 0.0480118 18.7416L1.50881 32.1623ZM7.76116 23.6813L1.8308 31.0603L4.1692 32.9397L10.0996 25.5606L7.76116 23.6813ZM10.0996 25.5606C20.0253 13.2103 34.4259 5.27847 50.1693 3.49042L49.8307 0.509584C33.3016 2.38687 18.1822 10.7145 7.76116 23.6813L10.0996 25.5606Z" fill="#4378AA"/>
</svg>
