<svg width="61" height="61" viewBox="0 0 61 61" fill="none" xmlns="http://www.w3.org/2000/svg">
<path d="M10.1006 55.773L11.5791 56.0255L11.5791 56.0255L10.1006 55.773ZM8.37371 59.5831C8.8525 60.2592 9.78869 60.4191 10.4647 59.9403L21.4817 52.1379C22.1578 51.6591 22.3177 50.723 21.8389 50.0469C21.3601 49.3708 20.4239 49.2109 19.7478 49.6897L9.955 56.6251L3.01958 46.8323C2.54078 46.1562 1.6046 45.9963 0.928542 46.4751C0.252483 46.9539 0.092571 47.8901 0.571363 48.5661L8.37371 59.5831ZM8.62198 55.5204L8.11923 58.4636L11.0764 58.9687L11.5791 56.0255L8.62198 55.5204ZM11.5791 56.0255C15.9779 30.2736 35.0758 9.49836 60.3672 2.95222L59.6155 0.0479198C33.1808 6.88998 13.2196 28.6044 8.62198 55.5204L11.5791 56.0255Z" fill="#4378AA"/>
</svg>
