<svg width="88" height="97" viewBox="0 0 88 97" fill="none" xmlns="http://www.w3.org/2000/svg">
<path d="M18.644 32.5253L18.5 34.0184L18.644 32.5253ZM2.04614 29.8582C1.4068 30.385 1.31558 31.3304 1.8424 31.9697L10.4274 42.3884C10.9542 43.0277 11.8995 43.1189 12.5389 42.5921C13.1782 42.0653 13.2694 41.1199 12.7426 40.4806L5.11154 31.2196L14.3726 23.5885C15.0119 23.0617 15.1031 22.1163 14.5763 21.477C14.0495 20.8376 13.1041 20.7464 12.4648 21.2732L2.04614 29.8582ZM18.7881 31.0323L3.1441 29.5228L2.85596 32.5089L18.5 34.0184L18.7881 31.0323ZM18.5 34.0184C44.592 36.5361 68.6255 49.2833 85.3447 69.4726L87.6553 67.5591C70.4303 46.7591 45.6696 33.6261 18.7881 31.0323L18.5 34.0184Z" fill="#4378AA"/>
</svg>
