<svg width="88" height="96" viewBox="0 0 88 96" fill="none" xmlns="http://www.w3.org/2000/svg">
<path d="M18.6436 64.0064L18.4995 62.5133L18.6436 64.0064ZM2.04572 66.6735C1.40637 66.1467 1.31516 65.2014 1.84197 64.562L10.4269 54.1434C10.9537 53.504 11.8991 53.4128 12.5384 53.9396C13.1778 54.4664 13.269 55.4118 12.7422 56.0511L5.11111 65.3122L14.3721 72.9432C15.0115 73.4701 15.1027 74.4154 14.5759 75.0548C14.0491 75.6941 13.1037 75.7853 12.4644 75.2585L2.04572 66.6735ZM18.7877 65.4995L3.14367 67.009L2.85553 64.0228L18.4995 62.5133L18.7877 65.4995ZM18.4995 62.5133C44.5916 59.9956 68.6251 47.2484 85.3443 27.0592L87.6549 28.9726C70.4298 49.7727 45.6692 62.9056 18.7877 65.4995L18.4995 62.5133Z" fill="#4378AA"/>
</svg>
