<svg width="89" height="96" viewBox="0 0 89 96" fill="none" xmlns="http://www.w3.org/2000/svg">
<g clip-path="url(#clip0_5916_3416)">
<path d="M88.018 81.7139C89.1675 80.5532 89.3316 78.4704 88.3843 77.0616L72.9491 54.1063C72.0019 52.6975 70.3022 52.4966 69.1527 53.6573C68.0031 54.818 67.8391 56.901 68.7863 58.3096L82.5066 78.7145L62.9287 90.1443C61.7791 91.3052 61.6151 93.388 62.5623 94.7968C63.5095 96.2053 65.2093 96.4063 66.3587 95.2456L88.018 81.7139ZM59.3328 74.7211L86.0439 82.4531L86.562 75.8736L59.851 68.1416L59.3328 74.7211ZM59.851 68.1416C27.4865 53.9035 22.1234 48.5445 4.15433 0L0 4.21582C18.8786 54.1063 25.549 60.315 59.3328 74.7211L59.851 68.1416Z" fill="#4378AA"/>
</g>
<defs>
<clipPath id="clip0_5916_3416">
<rect width="89" height="96" fill="white"/>
</clipPath>
</defs>
</svg>
