<svg width="105" height="29" viewBox="0 0 105 29" fill="none" xmlns="http://www.w3.org/2000/svg">
<path d="M93.7829 10.5035L92.7994 9.37092L93.7829 10.5035ZM104.495 2.60536C104.554 1.77898 103.931 1.06189 103.104 1.00369L89.6377 0.0553403C88.8114 -0.00285645 88.0943 0.61988 88.0361 1.44626C87.9779 2.27264 88.6006 2.98973 89.427 3.04793L101.397 3.89091L100.554 15.8613C100.496 16.6876 101.119 17.4047 101.945 17.4629C102.772 17.5211 103.489 16.8984 103.547 16.072L104.495 2.60536ZM94.7664 11.636L103.983 3.63254L102.015 1.36744L92.7994 9.37092L94.7664 11.636ZM92.7994 9.37092C66.5204 32.1921 27.0385 30.6932 2.56544 5.94528L0.4323 8.05472C26.0174 33.9272 67.2934 35.4942 94.7664 11.636L92.7994 9.37092Z" fill="#4378AA"/>
</svg>
