<svg width="62" height="42" viewBox="0 0 62 42" fill="none" xmlns="http://www.w3.org/2000/svg">
<path d="M50.3081 11.9962L49.1193 11.0815L49.1193 11.0815L50.3081 11.9962ZM59.4874 1.80622C59.3804 0.984737 58.6277 0.405549 57.8062 0.512569L44.4193 2.25657C43.5979 2.36359 43.0187 3.11629 43.1257 3.93777C43.2327 4.75926 43.9854 5.33845 44.8069 5.23143L56.7063 3.68121L58.2566 15.5807C58.3636 16.4021 59.1163 16.9813 59.9378 16.8743C60.7593 16.7673 61.3384 16.0146 61.2314 15.1931L59.4874 1.80622ZM51.4969 12.911L59.1888 2.91475L56.8112 1.08525L49.1193 11.0815L51.4969 12.911ZM49.1193 11.0815C37.3688 26.3523 19.9576 36.2407 0.823305 38.5104L1.17669 41.4896C21.113 39.1247 39.2538 28.8218 51.4969 12.911L49.1193 11.0815Z" fill="#4378AA"/>
</svg>
