<svg width="42" height="28" viewBox="0 0 42 28" fill="none" xmlns="http://www.w3.org/2000/svg">
<path d="M7.71401 7.80381L6.54969 8.74951V8.74951L7.71401 7.80381ZM1.50799 1.84541C1.59337 1.02139 2.33058 0.422608 3.15459 0.507988L16.5827 1.89934C17.4067 1.98472 18.0055 2.72193 17.9201 3.54594C17.8347 4.36996 17.0975 4.96874 16.2735 4.88336L4.33742 3.64661L3.10066 15.5827C3.01529 16.4067 2.27807 17.0055 1.45406 16.9201C0.630043 16.8347 0.0312576 16.0975 0.116638 15.2735L1.50799 1.84541ZM6.54969 8.74951L1.83567 2.9457L4.16433 1.0543L8.87834 6.85812L6.54969 8.74951ZM8.87834 6.85811C16.9109 16.7477 28.5065 23.0866 41.1675 24.5094L40.8325 27.4906C27.3897 25.9799 15.0782 19.2497 6.54969 8.74951L8.87834 6.85811Z" fill="#4378AA"/>
</svg>
