<?xml version="1.0" standalone="no"?>
<!DOCTYPE svg PUBLIC "-//W3C//DTD SVG 20010904//EN"
 "http://www.w3.org/TR/2001/REC-SVG-20010904/DTD/svg10.dtd">
<svg version="1.0" xmlns="http://www.w3.org/2000/svg"
 width="480.000000pt" height="480.000000pt" viewBox="0 0 480.000000 480.000000"
 preserveAspectRatio="xMidYMid meet">
<metadata>
Created by potrace 1.14, written by Peter Selinger 2001-2017
</metadata>
<g transform="translate(0.000000,480.000000) scale(0.100000,-0.100000)"
fill="#000000" stroke="none">
<path d="M2258 4749 c-47 -4 -121 -14 -163 -23 -42 -9 -81 -13 -86 -10 -5 3
-9 1 -9 -4 0 -5 -6 -9 -12 -10 -25 -1 -147 -38 -198 -59 -8 -3 -18 -5 -22 -5
-5 1 -8 -3 -8 -10 0 -6 -3 -9 -6 -6 -16 17 -394 -206 -394 -233 0 -5 -3 -8 -7
-7 -13 4 -145 -120 -203 -191 -19 -24 -42 -50 -51 -60 -37 -37 -141 -204 -193
-309 -30 -62 -54 -114 -54 -115 1 -1 -9 -32 -21 -68 -12 -36 -23 -76 -26 -88
-2 -12 -7 -31 -10 -41 -7 -24 -12 -45 -31 -155 -25 -143 -22 -403 6 -529 6
-26 13 -63 16 -84 3 -20 8 -40 11 -45 2 -4 7 -19 9 -34 3 -14 19 -63 35 -107
85 -229 204 -417 379 -599 36 -38 91 -96 122 -130 32 -34 68 -73 81 -87 19
-20 183 -223 215 -265 105 -141 203 -287 282 -420 29 -49 62 -103 73 -118 10
-16 20 -34 21 -40 1 -7 9 -23 18 -37 9 -14 36 -65 60 -115 23 -49 45 -92 48
-95 3 -3 27 -54 54 -115 27 -60 57 -129 67 -152 11 -23 19 -45 19 -48 0 -4 7
-23 16 -43 30 -69 42 -98 69 -174 9 -26 21 -51 27 -54 6 -4 9 -3 6 2 -3 5 -1
20 5 34 5 14 11 32 13 40 2 8 8 23 13 35 10 19 26 59 31 80 2 6 16 38 31 72
15 34 25 64 22 67 -4 3 -1 6 6 6 7 0 9 5 6 10 -3 6 -1 10 4 10 6 0 10 3 8 8
-3 10 105 246 115 250 5 2 8 9 8 16 0 44 294 540 402 678 17 21 26 38 22 38
-4 0 -1 6 7 12 9 7 38 42 65 78 97 127 198 245 349 405 68 72 136 146 151 165
16 19 33 40 39 47 23 28 32 41 73 104 23 36 42 71 42 77 0 7 4 12 8 12 5 0 17
19 28 43 10 23 23 45 29 49 5 4 7 8 3 8 -4 0 6 28 22 63 26 58 83 237 95 300
3 15 7 37 9 50 27 141 27 454 0 577 -3 14 -7 36 -10 50 -15 73 -57 214 -79
265 -7 17 -24 55 -38 85 -31 72 -114 218 -138 243 -10 12 -19 24 -19 28 0 4
-6 14 -12 21 -7 7 -31 36 -53 63 -88 110 -247 252 -380 340 -114 75 -378 190
-483 210 -241 46 -379 58 -534 44z"/>
</g>
</svg>
