<svg width="33" height="33" viewBox="0 0 33 33" fill="none" xmlns="http://www.w3.org/2000/svg">
<mask id="mask0_4171_4171" style="mask-type:alpha" maskUnits="userSpaceOnUse" x="0" y="0" width="33" height="33">
<rect width="33" height="33" fill="#D9D9D9"/>
</mask>
<g mask="url(#mask0_4171_4171)">
<path d="M1.375 28.875L16.5 2.75L31.625 28.875H1.375ZM16.5 24.75C16.8896 24.75 17.2161 24.6182 17.4797 24.3547C17.7432 24.0911 17.875 23.7646 17.875 23.375C17.875 22.9854 17.7432 22.6589 17.4797 22.3953C17.2161 22.1318 16.8896 22 16.5 22C16.1104 22 15.7839 22.1318 15.5203 22.3953C15.2568 22.6589 15.125 22.9854 15.125 23.375C15.125 23.7646 15.2568 24.0911 15.5203 24.3547C15.7839 24.6182 16.1104 24.75 16.5 24.75ZM15.125 20.625H17.875V13.75H15.125V20.625Z" fill="#EB5757"/>
</g>
</svg>
