<svg width="33" height="33" viewBox="0 0 33 33" fill="none" xmlns="http://www.w3.org/2000/svg">
<mask id="mask0_4171_4158" style="mask-type:alpha" maskUnits="userSpaceOnUse" x="0" y="0" width="33" height="33">
<rect width="33" height="33" fill="#D9D9D9"/>
</mask>
<g mask="url(#mask0_4171_4158)">
<path d="M12.375 12.375V9.625H24.75V12.375H12.375ZM12.375 16.5V13.75H24.75V16.5H12.375ZM19.25 30.25V26.0219L26.8469 18.4594C27.0531 18.2531 27.2823 18.1042 27.5344 18.0125C27.7865 17.9208 28.0385 17.875 28.2906 17.875C28.5656 17.875 28.8292 17.9266 29.0812 18.0297C29.3333 18.1328 29.5625 18.2875 29.7687 18.4937L31.0406 19.7656C31.224 19.9719 31.3672 20.201 31.4703 20.4531C31.5734 20.7052 31.625 20.9573 31.625 21.2094C31.625 21.4615 31.5792 21.7193 31.4875 21.9828C31.3958 22.2464 31.2469 22.4813 31.0406 22.6875L23.4781 30.25H19.25ZM28.2906 22.55L29.5625 21.2094L28.2906 19.9375L26.9844 21.2437L28.2906 22.55ZM8.25 30.25C7.10417 30.25 6.13021 29.849 5.32812 29.0469C4.52604 28.2448 4.125 27.2708 4.125 26.125V22H8.25V2.75H28.875V15.1594C28.4167 15.1135 27.9526 15.1307 27.4828 15.2109C27.013 15.2911 26.5604 15.4344 26.125 15.6406V5.5H11V22H19.25L16.5 24.75V30.25H8.25Z" fill="#27AE60"/>
</g>
</svg>
