<svg width="25" height="25" viewBox="0 0 25 25" fill="none" xmlns="http://www.w3.org/2000/svg">
<path d="M2.75 0.125H22C23.5125 0.125 24.75 1.34875 24.75 2.875V22.125C24.75 22.8538 24.4613 23.555 23.9387 24.0637C23.43 24.5863 22.7288 24.875 22 24.875H2.75C2.02125 24.875 1.32 24.5863 0.81125 24.0637C0.28875 23.555 0 22.8538 0 22.125V2.875C0 1.34875 1.22375 0.125 2.75 0.125ZM12.7875 6.02375C12.5262 6.3125 12.375 6.6425 12.375 7C12.375 7.37125 12.5262 7.6875 12.7875 7.97625C13.0625 8.2375 13.3925 8.375 13.75 8.375C14.1213 8.375 14.4375 8.2375 14.7262 7.97625C14.9875 7.6875 15.125 7.37125 15.125 7C15.125 6.6425 14.9875 6.3125 14.7262 6.02375C14.4375 5.77625 14.1213 5.625 13.75 5.625C13.3925 5.625 13.0625 5.77625 12.7875 6.02375ZM9.35 12.4588C9.2125 12.5825 9.2125 12.5963 9.30875 12.7338L9.3775 12.8438L9.41875 12.9263C9.515 13.105 9.52875 13.105 9.68 12.995C9.85875 12.8712 10.1613 12.6788 10.67 12.3762C11.935 11.565 11.6875 12.5 11.1238 14.5625C10.8212 15.7037 10.4362 17.1613 10.1475 18.8525C9.8175 21.2588 11.9762 20.0213 12.54 19.65C13.0625 19.32 14.355 18.4125 14.6575 18.2062L14.7125 18.1787C14.8775 18.055 14.8088 18 14.685 17.8075L14.6025 17.6975C14.4925 17.5462 14.3825 17.6562 14.3825 17.6562L14.1625 17.8075C13.5437 18.22 12.6912 18.8113 12.5538 18.3438C12.43 18 12.9388 16.13 13.4613 14.2188C13.695 13.38 13.9288 12.5 14.1075 11.7713L14.135 11.6887C14.2312 11.0837 14.4375 9.915 13.4338 9.9975C12.3338 10.0938 9.35 12.4588 9.35 12.4588Z" fill="#2D9CDB"/>
</svg>
