<svg width="33" height="33" viewBox="0 0 33 33" fill="none" xmlns="http://www.w3.org/2000/svg">
<mask id="mask0_4171_4108" style="mask-type:alpha" maskUnits="userSpaceOnUse" x="0" y="0" width="33" height="33">
<rect width="33" height="33" fill="#D9D9D9"/>
</mask>
<g mask="url(#mask0_4171_4108)">
<path d="M16.5 30.25C15.9042 30.25 15.3656 30.1068 14.8844 29.8203C14.4031 29.5339 14.025 29.15 13.75 28.6688C12.9938 28.6688 12.3464 28.3995 11.8078 27.8609C11.2693 27.3224 11 26.675 11 25.9188V21.0375C9.64792 20.1438 8.5651 18.9635 7.75156 17.4969C6.93802 16.0302 6.53125 14.4375 6.53125 12.7188C6.53125 9.94583 7.49948 7.59115 9.43594 5.65469C11.3724 3.71823 13.7271 2.75 16.5 2.75C19.2729 2.75 21.6276 3.71823 23.5641 5.65469C25.5005 7.59115 26.4688 9.94583 26.4688 12.7188C26.4688 14.4833 26.062 16.0875 25.2484 17.5312C24.4349 18.975 23.3521 20.1438 22 21.0375V25.9188C22 26.675 21.7307 27.3224 21.1922 27.8609C20.6536 28.3995 20.0063 28.6688 19.25 28.6688C18.975 29.15 18.5969 29.5339 18.1156 29.8203C17.6344 30.1068 17.0958 30.25 16.5 30.25ZM13.75 25.9188H19.25V24.6812H13.75V25.9188ZM13.75 23.3062H19.25V22H13.75V23.3062ZM17.5312 19.25V15.5375L20.5562 12.5125L19.1125 11.0688L16.5 13.6813L13.8875 11.0688L12.4438 12.5125L15.4688 15.5375V19.25H17.5312Z" fill="#F2C94C"/>
</g>
</svg>
